<svg width="11" height="11" viewBox="0 0 11 11" fill="none" xmlns="http://www.w3.org/2000/svg">
<path d="M4.50479 0.00340249C4.39921 0.00340249 4.29796 0.045343 4.2233 0.119998C4.14865 0.194653 4.10671 0.295907 4.10671 0.401485C4.10671 0.507063 4.14865 0.608316 4.2233 0.682971C4.29796 0.757626 4.39921 0.799567 4.50479 0.799567H6.09031C6.19711 0.79957 6.29958 0.75738 6.37542 0.682183C6.45125 0.606987 6.4943 0.504874 6.4952 0.398082C6.4952 0.292504 6.45326 0.19125 6.37861 0.116595C6.30395 0.0419406 6.2027 0 6.09712 0L4.50479 0.00340249ZM6.60068 9.21033C6.65324 9.21078 6.70537 9.20081 6.75406 9.18101C6.80275 9.1612 6.84704 9.13195 6.88436 9.09494C6.92169 9.05793 6.95132 9.01389 6.97154 8.96537C6.99175 8.91685 7.00216 8.86481 7.00216 8.81224V3.62697C7.00041 3.52194 6.95791 3.4217 6.88363 3.34742C6.80935 3.27314 6.70911 3.23064 6.60408 3.22889C6.5518 3.22889 6.50004 3.23918 6.45174 3.25919C6.40344 3.2792 6.35956 3.30852 6.32259 3.34548C6.28563 3.38245 6.2563 3.42633 6.2363 3.47463C6.21629 3.52293 6.206 3.57469 6.206 3.62697V8.81224C6.20599 8.91723 6.24747 9.01798 6.32139 9.09253C6.39531 9.16709 6.49569 9.20943 6.60068 9.21033Z" fill="#F44336"/>
<path d="M10.2038 1.59914H0.398082C0.292504 1.59914 0.19125 1.64108 0.116595 1.71573C0.0419406 1.79039 0 1.89164 0 1.99722C0 2.1028 0.0419406 2.20405 0.116595 2.2787C0.19125 2.35336 0.292504 2.3953 0.398082 2.3953H1.21806V10.0031C1.21806 10.2675 1.32309 10.5211 1.51005 10.708C1.69701 10.895 1.95057 11 2.21497 11H8.39035C8.52123 11.0004 8.6509 10.9749 8.77187 10.925C8.89283 10.875 9.00268 10.8015 9.09507 10.7088C9.18746 10.6161 9.26056 10.506 9.31012 10.3849C9.35969 10.2637 9.38475 10.134 9.38385 10.0031V2.3953H10.2004C10.3064 2.39445 10.4078 2.35245 10.4834 2.27816C10.559 2.20388 10.6027 2.10314 10.6053 1.99722C10.6053 1.94465 10.5949 1.89261 10.5747 1.84409C10.5545 1.79557 10.5248 1.75153 10.4875 1.71452C10.4502 1.67751 10.4059 1.64826 10.3572 1.62846C10.3085 1.60865 10.2564 1.59869 10.2038 1.59914ZM8.58768 10.0031C8.58769 10.0297 8.58239 10.0561 8.57208 10.0807C8.56178 10.1053 8.54669 10.1276 8.52769 10.1463C8.50869 10.1649 8.48616 10.1797 8.46141 10.1895C8.43666 10.1994 8.41019 10.2043 8.38354 10.2038H2.20476C2.17812 10.2043 2.15165 10.1994 2.1269 10.1895C2.10215 10.1797 2.07961 10.1649 2.06061 10.1463C2.04161 10.1276 2.02652 10.1053 2.01622 10.0807C2.00592 10.0561 2.00061 10.0297 2.00062 10.0031V2.3953H8.58768V10.0031Z" fill="#F44336"/>
<path d="M4.24621 9.21034C4.35092 9.20857 4.45079 9.16595 4.52452 9.09158C4.59826 9.01722 4.64001 8.91698 4.64089 8.81226V3.62698C4.646 3.57184 4.63956 3.51624 4.62196 3.46374C4.60437 3.41123 4.57601 3.36297 4.5387 3.32205C4.5014 3.28112 4.45596 3.24843 4.40531 3.22606C4.35465 3.20369 4.29988 3.19214 4.24451 3.19214C4.18913 3.19214 4.13436 3.20369 4.0837 3.22606C4.03305 3.24843 3.98761 3.28112 3.95031 3.32205C3.913 3.36297 3.88465 3.41123 3.86705 3.46374C3.84946 3.51624 3.84301 3.57184 3.84813 3.62698V8.81226C3.84813 8.91784 3.89007 9.01909 3.96472 9.09375C4.03938 9.1684 4.14063 9.21034 4.24621 9.21034Z" fill="#F44336"/>
</svg>
