<svg width="24" height="24" viewBox="0 0 24 24" fill="none" xmlns="http://www.w3.org/2000/svg">
<circle cx="12" cy="12" r="12" fill="#4CAF50"/>
<path d="M10.9237 16C10.8034 16.0007 10.6875 15.956 10.6008 15.8756L7.14035 12.6408C7.09673 12.5999 7.06188 12.5512 7.03781 12.4974C7.01373 12.4436 7.0009 12.3857 7.00005 12.3271C6.99919 12.2685 7.01032 12.2104 7.03281 12.1559C7.0553 12.1015 7.08871 12.0518 7.13112 12.0098C7.17354 11.9678 7.22413 11.9342 7.28001 11.9111C7.33589 11.8879 7.39596 11.8755 7.4568 11.8747C7.51764 11.8739 7.57805 11.8846 7.63458 11.9063C7.69112 11.9279 7.74267 11.9601 7.7863 12.0009L10.9237 14.9336L18.2137 8.12628C18.3018 8.04378 18.4203 7.99838 18.5432 8.00004C18.6661 8.00171 18.7832 8.05032 18.8689 8.13516C18.9545 8.22001 19.0017 8.33416 19 8.45249C18.9982 8.57082 18.9478 8.68364 18.8596 8.76613L11.2467 15.8756C11.16 15.956 11.0441 16.0007 10.9237 16Z" fill="white"/>
</svg>
