<svg width="17" height="15" viewBox="0 0 17 15" fill="none" xmlns="http://www.w3.org/2000/svg">
<path d="M8.47409 10.2124C8.22563 10.2124 8.02417 10.4083 8.02417 10.6499C8.02417 10.8915 8.22563 11.0874 8.47409 11.0874C8.72256 11.0874 8.92401 10.8915 8.92401 10.6499C8.92401 10.4083 8.72256 10.2124 8.47409 10.2124ZM8.47409 8.89986C8.67273 8.89973 8.83416 8.74306 8.83403 8.54985V5.74978C8.83403 5.55649 8.67287 5.39977 8.47409 5.39977C8.27532 5.39977 8.11416 5.55649 8.11416 5.74978V8.55024C8.11429 8.74344 8.27541 8.89999 8.47409 8.89986ZM16.186 11.3827L10.3202 1.53464C10.1336 1.22171 9.86612 0.961601 9.54432 0.780188C8.52475 0.205442 7.21911 0.543188 6.62802 1.53464L0.761482 11.3848C0.573122 11.701 0.473955 12.0599 0.473999 12.4253C0.474219 13.5713 1.42973 14.5002 2.60826 14.5H14.3378C14.7139 14.5001 15.0833 14.4036 15.4087 14.2203C16.4292 13.6454 16.7771 12.375 16.186 11.3827ZM14.3379 13.8H2.60826C2.35993 13.7998 2.11603 13.7361 1.90104 13.6152C1.22458 13.2349 0.993208 12.3933 1.38434 11.7355L7.25087 1.88601C7.50149 1.45957 7.96899 1.19753 8.47409 1.20035C8.9792 1.19753 9.44669 1.45957 9.69731 1.88601L15.5632 11.7341C15.688 11.9438 15.7537 12.1818 15.7537 12.4241C15.7534 13.1843 15.1195 13.8002 14.3379 13.8Z" fill="#757575"/>
</svg>
