<svg width="16" height="17" viewBox="0 0 16 17" fill="none" xmlns="http://www.w3.org/2000/svg">
<path d="M1.2322 16.4977C0.906339 16.4946 0.594682 16.3638 0.364254 16.1334C0.133826 15.903 0.00303146 15.5913 0 15.2655V6.65403C0 5.98213 0.562627 5.42183 1.2322 5.42183H3.0805C3.53618 5.42183 3.93606 5.68454 4.14996 6.06117C4.56379 5.80543 4.97065 5.65664 5.23336 5.50552C5.85179 5.14749 6.16797 4.14313 6.31444 3.09459C6.38652 2.57149 6.42604 2.06699 6.49114 1.64618C6.52369 1.43694 6.55391 1.25094 6.63993 1.04635C6.69485 0.891179 6.79515 0.756104 6.92783 0.658673C7.0605 0.561242 7.2194 0.505957 7.3839 0.5C8.29759 0.5 9.04621 0.858035 9.52281 1.40671C10.0017 1.95307 10.2249 2.63891 10.3458 3.31779C10.5411 4.42909 10.4667 5.37068 10.4295 6.04258H14.1494C15.163 6.04258 16 6.87489 16 7.88623C16 8.24426 15.8977 8.51395 15.7675 8.93243C15.6373 9.35324 15.4629 9.86007 15.2677 10.4018C14.8817 11.4852 14.4214 12.7127 14.1192 13.6171C14.0055 14.0062 13.8158 14.3689 13.5612 14.6842C13.4055 14.8647 13.2133 15.01 12.9973 15.1106C12.7813 15.2112 12.5463 15.2648 12.3081 15.2678H4.92415C4.71448 15.2659 4.50677 15.2273 4.31037 15.1539V15.2701C4.31037 15.9397 3.7524 16.5 3.0805 16.5L1.2322 16.4977ZM1.2322 15.2655H3.0805V6.65403H1.2322V15.2655ZM4.92415 14.0356H12.3081C12.4708 14.0356 12.5219 14.0031 12.6289 13.8775C12.7745 13.6795 12.8847 13.4576 12.9544 13.2219C13.2682 12.2803 13.7286 11.0551 14.1099 9.98561C14.3005 9.45089 14.4725 8.95568 14.5911 8.56742C14.712 8.18149 14.7701 7.83275 14.7701 7.8839C14.7717 7.80246 14.7568 7.72155 14.7262 7.64605C14.6956 7.57055 14.6501 7.50204 14.5923 7.44466C14.5345 7.38729 14.4656 7.34223 14.3899 7.31223C14.3141 7.28223 14.2331 7.26791 14.1517 7.27013H9.7925C9.7112 7.27043 9.63065 7.25465 9.55548 7.22368C9.48031 7.19271 9.41201 7.14717 9.35452 7.08968C9.29704 7.03219 9.2515 6.96389 9.22053 6.88872C9.18956 6.81356 9.17377 6.733 9.17408 6.6517C9.17408 5.92633 9.33217 4.62903 9.1392 3.52703C9.04156 2.97835 8.86021 2.51569 8.5975 2.21578C8.3703 1.96017 8.05801 1.79576 7.71869 1.75312C7.65591 2.10418 7.61407 2.70401 7.53502 3.26431C7.3746 4.41049 7.07236 5.86123 5.84714 6.57033C5.38913 6.83304 4.9474 6.98881 4.68468 7.17015C4.41965 7.3515 4.3127 7.44914 4.3127 7.8839V13.4172C4.3127 13.7706 4.57309 14.0356 4.92415 14.0356Z" fill="#757575"/>
</svg>
