<svg width="15" height="15" viewBox="0 0 15 15" fill="none" xmlns="http://www.w3.org/2000/svg">
<path d="M14.8004 7.018L11.3912 3.60888C11.2626 3.48468 11.0904 3.41595 10.9116 3.41751C10.7329 3.41906 10.5619 3.49077 10.4354 3.61718C10.309 3.7436 10.2373 3.91461 10.2358 4.09338C10.2342 4.27215 10.3029 4.44438 10.4271 4.57298L12.6724 6.81823H4.77277C4.59194 6.81823 4.41851 6.89006 4.29064 7.01793C4.16278 7.14579 4.09094 7.31922 4.09094 7.50005C4.09094 7.68088 4.16278 7.85431 4.29064 7.98217C4.41851 8.11004 4.59194 8.18188 4.77277 8.18188H12.6724L10.4271 10.4271C10.362 10.49 10.3101 10.5653 10.2743 10.6484C10.2386 10.7316 10.2198 10.8211 10.219 10.9116C10.2182 11.0022 10.2355 11.0919 10.2698 11.1757C10.304 11.2595 10.3547 11.3357 10.4187 11.3997C10.4827 11.4637 10.5588 11.5143 10.6426 11.5486C10.7264 11.5829 10.8162 11.6001 10.9067 11.5994C10.9973 11.5986 11.0867 11.5798 11.1699 11.544C11.2531 11.5083 11.3283 11.4563 11.3912 11.3912L14.8004 7.9821C14.9282 7.85424 15 7.68085 15 7.50005C15 7.31925 14.9282 7.14586 14.8004 7.018Z" fill="#757575"/>
<path d="M3.40912 13.6365H1.36365V1.36365H3.40912C3.58995 1.36365 3.76338 1.29181 3.89125 1.16395C4.01911 1.03608 4.09095 0.862656 4.09095 0.681825C4.09095 0.500994 4.01911 0.327569 3.89125 0.199702C3.76338 0.071835 3.58995 0 3.40912 0H0.681825C0.500994 0 0.327569 0.071835 0.199702 0.199702C0.071835 0.327569 0 0.500994 0 0.681825V14.3183C0 14.4992 0.071835 14.6726 0.199702 14.8004C0.327569 14.9283 0.500994 15.0001 0.681825 15.0001H3.40912C3.58995 15.0001 3.76338 14.9283 3.89125 14.8004C4.01911 14.6726 4.09095 14.4992 4.09095 14.3183C4.09095 14.1375 4.01911 13.9641 3.89125 13.8362C3.76338 13.7083 3.58995 13.6365 3.40912 13.6365Z" fill="#757575"/>
</svg>
