<svg width="22" height="24" viewBox="0 0 22 24" fill="none" xmlns="http://www.w3.org/2000/svg">
<path d="M21.5781 17.0156C21.8594 17.2969 22 17.6719 22 18C21.9531 18.7969 21.3906 19.5 20.4531 19.5H2.5C1.5625 19.5 1 18.7969 1 18C0.953125 17.6719 1.09375 17.2969 1.375 17.0156C2.26562 16.0312 4 14.5781 4 9.75C4 6.14062 6.53125 3.23438 10 2.48438V1.5C10 0.703125 10.6562 0 11.5 0C12.2969 0 12.9531 0.703125 12.9531 1.5V2.48438C16.4219 3.23438 18.9531 6.14062 18.9531 9.75C18.9531 14.5781 20.6875 16.0312 21.5781 17.0156ZM4.14062 17.25H18.8125C17.8281 15.9844 16.75 13.7812 16.7031 9.79688C16.7031 9.79688 16.75 9.79688 16.75 9.75C16.75 6.89062 14.3594 4.5 11.5 4.5C8.59375 4.5 6.25 6.89062 6.25 9.75C6.25 9.79688 6.25 9.79688 6.25 9.79688C6.20312 13.7812 5.125 15.9844 4.14062 17.25ZM11.5 24C9.8125 24 8.5 22.6875 8.5 21H14.4531C14.4531 22.6875 13.1406 24 11.5 24Z" fill="#757575"/>
<path d="M21.5781 17.0156L21.2074 17.3511L21.2157 17.3603L21.2246 17.3692L21.5781 17.0156ZM22 18L22.4991 18.0294L22.5 18.0147V18H22ZM1 18H1.5V17.9645L1.49497 17.9293L1 18ZM1.375 17.0156L1.72855 17.3692L1.73739 17.3603L1.74577 17.3511L1.375 17.0156ZM10 2.48438L10.1057 2.97308L10.5 2.88782V2.48438H10ZM12.9531 2.48438H12.4531V2.88782L12.8475 2.97308L12.9531 2.48438ZM4.14062 17.25L3.74595 16.943L3.11831 17.75H4.14062V17.25ZM18.8125 17.25V17.75H19.8348L19.2072 16.943L18.8125 17.25ZM16.7031 9.79688V9.29688H16.1972L16.2032 9.80276L16.7031 9.79688ZM6.25 9.79688L6.75 9.80276V9.79688H6.25ZM8.5 21V20.5H8V21H8.5ZM14.4531 21H14.9531V20.5H14.4531V21ZM21.2246 17.3692C21.4119 17.5565 21.5 17.8042 21.5 18H22.5C22.5 17.5395 22.3069 17.0373 21.9317 16.6621L21.2246 17.3692ZM21.5009 17.9706C21.4667 18.5512 21.0803 19 20.4531 19V20C21.7009 20 22.4395 19.0425 22.4991 18.0294L21.5009 17.9706ZM20.4531 19H2.5V20H20.4531V19ZM2.5 19C1.8692 19 1.5 18.5523 1.5 18H0.5C0.5 19.0414 1.2558 20 2.5 20V19ZM1.49497 17.9293C1.47448 17.7858 1.53622 17.5615 1.72855 17.3692L1.02145 16.6621C0.651284 17.0322 0.43177 17.5579 0.505025 18.0707L1.49497 17.9293ZM1.74577 17.3511C2.16864 16.8837 2.8855 16.2142 3.4687 15.0478C4.05487 13.8755 4.5 12.2256 4.5 9.75H3.5C3.5 12.1025 3.07794 13.5933 2.57427 14.6006C2.06763 15.6139 1.47198 16.1632 1.00423 16.6802L1.74577 17.3511ZM4.5 9.75C4.5 6.39211 6.85095 3.6768 10.1057 2.97308L9.89433 1.99567C6.21155 2.79195 3.5 5.88914 3.5 9.75H4.5ZM10.5 2.48438V1.5H9.5V2.48438H10.5ZM10.5 1.5C10.5 0.969076 10.9425 0.5 11.5 0.5V-0.5C10.37 -0.5 9.5 0.437174 9.5 1.5H10.5ZM11.5 0.5C12.0005 0.5 12.4531 0.958554 12.4531 1.5H13.4531C13.4531 0.447696 12.5933 -0.5 11.5 -0.5V0.5ZM12.4531 1.5V2.48438H13.4531V1.5H12.4531ZM12.8475 2.97308C16.1022 3.6768 18.4531 6.39211 18.4531 9.75H19.4531C19.4531 5.88914 16.7416 2.79195 13.0588 1.99567L12.8475 2.97308ZM18.4531 9.75C18.4531 12.2256 18.8983 13.8755 19.4844 15.0478C20.0676 16.2142 20.7845 16.8837 21.2074 17.3511L21.9489 16.6802C21.4811 16.1632 20.8855 15.6139 20.3789 14.6006C19.8752 13.5933 19.4531 12.1025 19.4531 9.75H18.4531ZM4.14062 17.75H18.8125V16.75H4.14062V17.75ZM19.2072 16.943C18.2972 15.7731 17.2488 13.6789 17.2031 9.79099L16.2032 9.80276C16.2512 13.8836 17.359 16.1957 18.4178 17.557L19.2072 16.943ZM16.7031 9.79688C16.7031 10.2969 16.7034 10.2969 16.7036 10.2969C16.7037 10.2969 16.7039 10.2969 16.7041 10.2969C16.7044 10.2969 16.7048 10.2969 16.7051 10.2969C16.7058 10.2969 16.7064 10.2969 16.7071 10.2969C16.7085 10.2968 16.7099 10.2968 16.7113 10.2968C16.7142 10.2968 16.7172 10.2967 16.7203 10.2966C16.7265 10.2964 16.7334 10.296 16.7408 10.2955C16.7553 10.2945 16.7729 10.2926 16.7926 10.2893C16.8298 10.2831 16.887 10.2698 16.9502 10.2382C17.0153 10.2056 17.0957 10.1489 17.1587 10.0544C17.2238 9.95686 17.25 9.84921 17.25 9.75H16.25C16.25 9.67423 16.2704 9.58416 16.3267 9.49975C16.3808 9.41847 16.4495 9.37053 16.503 9.3438C16.5545 9.31805 16.5999 9.30767 16.6282 9.30295C16.6436 9.30039 16.6575 9.29891 16.6695 9.29805C16.6756 9.29762 16.6814 9.29733 16.687 9.29714C16.6898 9.29705 16.6925 9.29698 16.6952 9.29694C16.6965 9.29692 16.6979 9.2969 16.6992 9.29689C16.6999 9.29689 16.7005 9.29688 16.7012 9.29688C16.7015 9.29688 16.7018 9.29688 16.7021 9.29688C16.7023 9.29688 16.7026 9.29688 16.7026 9.29688C16.7029 9.29688 16.7031 9.29688 16.7031 9.79688ZM17.25 9.75C17.25 6.61448 14.6355 4 11.5 4V5C14.0832 5 16.25 7.16677 16.25 9.75H17.25ZM11.5 4C8.31471 4 5.75 6.61739 5.75 9.75H6.75C6.75 7.16386 8.87279 5 11.5 5V4ZM5.75 9.75C5.75 9.75009 5.75 9.75018 5.75 9.75027C5.75 9.75037 5.75 9.75046 5.75 9.75055C5.75 9.75064 5.75 9.75073 5.75 9.75082C5.75 9.75091 5.75 9.751 5.75 9.75109C5.75 9.75118 5.75 9.75127 5.75 9.75136C5.75 9.75145 5.75 9.75154 5.75 9.75163C5.75 9.75172 5.75 9.75181 5.75 9.7519C5.75 9.75199 5.75 9.75207 5.75 9.75216C5.75 9.75225 5.75 9.75234 5.75 9.75243C5.75 9.75252 5.75 9.75261 5.75 9.75269C5.75 9.75278 5.75 9.75287 5.75 9.75296C5.75 9.75304 5.75 9.75313 5.75 9.75322C5.75 9.75331 5.75 9.75339 5.75 9.75348C5.75 9.75357 5.75 9.75365 5.75 9.75374C5.75 9.75383 5.75 9.75391 5.75 9.754C5.75 9.75409 5.75 9.75417 5.75 9.75426C5.75 9.75434 5.75 9.75443 5.75 9.75452C5.75 9.7546 5.75 9.75469 5.75 9.75477C5.75 9.75486 5.75 9.75494 5.75 9.75503C5.75 9.75511 5.75 9.7552 5.75 9.75528C5.75 9.75537 5.75 9.75545 5.75 9.75553C5.75 9.75562 5.75 9.7557 5.75 9.75579C5.75 9.75587 5.75 9.75595 5.75 9.75604C5.75 9.75612 5.75 9.7562 5.75 9.75629C5.75 9.75637 5.75 9.75645 5.75 9.75654C5.75 9.75662 5.75 9.7567 5.75 9.75678C5.75 9.75687 5.75 9.75695 5.75 9.75703C5.75 9.75711 5.75 9.7572 5.75 9.75728C5.75 9.75736 5.75 9.75744 5.75 9.75752C5.75 9.7576 5.75 9.75769 5.75 9.75777C5.75 9.75785 5.75 9.75793 5.75 9.75801C5.75 9.75809 5.75 9.75817 5.75 9.75825C5.75 9.75833 5.75 9.75841 5.75 9.75849C5.75 9.75857 5.75 9.75865 5.75 9.75873C5.75 9.75881 5.75 9.75889 5.75 9.75897C5.75 9.75905 5.75 9.75913 5.75 9.75921C5.75 9.75929 5.75 9.75937 5.75 9.75945C5.75 9.75952 5.75 9.7596 5.75 9.75968C5.75 9.75976 5.75 9.75984 5.75 9.75992C5.75 9.75999 5.75 9.76007 5.75 9.76015C5.75 9.76023 5.75 9.76031 5.75 9.76038C5.75 9.76046 5.75 9.76054 5.75 9.76062C5.75 9.76069 5.75 9.76077 5.75 9.76085C5.75 9.76092 5.75 9.761 5.75 9.76108C5.75 9.76115 5.75 9.76123 5.75 9.76131C5.75 9.76138 5.75 9.76146 5.75 9.76153C5.75 9.76161 5.75 9.76168 5.75 9.76176C5.75 9.76184 5.75 9.76191 5.75 9.76199C5.75 9.76206 5.75 9.76214 5.75 9.76221C5.75 9.76229 5.75 9.76236 5.75 9.76244C5.75 9.76251 5.75 9.76258 5.75 9.76266C5.75 9.76273 5.75 9.76281 5.75 9.76288C5.75 9.76295 5.75 9.76303 5.75 9.7631C5.75 9.76318 5.75 9.76325 5.75 9.76332C5.75 9.7634 5.75 9.76347 5.75 9.76354C5.75 9.76361 5.75 9.76369 5.75 9.76376C5.75 9.76383 5.75 9.7639 5.75 9.76398C5.75 9.76405 5.75 9.76412 5.75 9.76419C5.75 9.76427 5.75 9.76434 5.75 9.76441C5.75 9.76448 5.75 9.76455 5.75 9.76462C5.75 9.7647 5.75 9.76477 5.75 9.76484C5.75 9.76491 5.75 9.76498 5.75 9.76505C5.75 9.76512 5.75 9.76519 5.75 9.76526C5.75 9.76533 5.75 9.7654 5.75 9.76547C5.75 9.76554 5.75 9.76561 5.75 9.76568C5.75 9.76575 5.75 9.76582 5.75 9.76589C5.75 9.76596 5.75 9.76603 5.75 9.7661C5.75 9.76617 5.75 9.76624 5.75 9.76631C5.75 9.76637 5.75 9.76644 5.75 9.76651C5.75 9.76658 5.75 9.76665 5.75 9.76672C5.75 9.76679 5.75 9.76685 5.75 9.76692C5.75 9.76699 5.75 9.76706 5.75 9.76712C5.75 9.76719 5.75 9.76726 5.75 9.76733C5.75 9.76739 5.75 9.76746 5.75 9.76753C5.75 9.7676 5.75 9.76766 5.75 9.76773C5.75 9.7678 5.75 9.76786 5.75 9.76793C5.75 9.768 5.75 9.76806 5.75 9.76813C5.75 9.76819 5.75 9.76826 5.75 9.76833C5.75 9.76839 5.75 9.76846 5.75 9.76852C5.75 9.76859 5.75 9.76865 5.75 9.76872C5.75 9.76878 5.75 9.76885 5.75 9.76891C5.75 9.76898 5.75 9.76904 5.75 9.76911C5.75 9.76917 5.75 9.76924 5.75 9.7693C5.75 9.76937 5.75 9.76943 5.75 9.76949C5.75 9.76956 5.75 9.76962 5.75 9.76968C5.75 9.76975 5.75 9.76981 5.75 9.76988C5.75 9.76994 5.75 9.77 5.75 9.77006C5.75 9.77013 5.75 9.77019 5.75 9.77025C5.75 9.77032 5.75 9.77038 5.75 9.77044C5.75 9.7705 5.75 9.77057 5.75 9.77063C5.75 9.77069 5.75 9.77075 5.75 9.77081C5.75 9.77088 5.75 9.77094 5.75 9.771C5.75 9.77106 5.75 9.77112 5.75 9.77118C5.75 9.77125 5.75 9.77131 5.75 9.77137C5.75 9.77143 5.75 9.77149 5.75 9.77155C5.75 9.77161 5.75 9.77167 5.75 9.77173C5.75 9.77179 5.75 9.77185 5.75 9.77191C5.75 9.77197 5.75 9.77203 5.75 9.77209C5.75 9.77215 5.75 9.77221 5.75 9.77227C5.75 9.77233 5.75 9.77239 5.75 9.77245C5.75 9.77251 5.75 9.77257 5.75 9.77263C5.75 9.77269 5.75 9.77275 5.75 9.7728C5.75 9.77286 5.75 9.77292 5.75 9.77298C5.75 9.77304 5.75 9.7731 5.75 9.77316C5.75 9.77321 5.75 9.77327 5.75 9.77333C5.75 9.77339 5.75 9.77344 5.75 9.7735C5.75 9.77356 5.75 9.77362 5.75 9.77367C5.75 9.77373 5.75 9.77379 5.75 9.77385C5.75 9.7739 5.75 9.77396 5.75 9.77402C5.75 9.77407 5.75 9.77413 5.75 9.77419C5.75 9.77424 5.75 9.7743 5.75 9.77436C5.75 9.77441 5.75 9.77447 5.75 9.77452C5.75 9.77458 5.75 9.77463 5.75 9.77469C5.75 9.77475 5.75 9.7748 5.75 9.77486C5.75 9.77491 5.75 9.77497 5.75 9.77502C5.75 9.77508 5.75 9.77513 5.75 9.77519C5.75 9.77524 5.75 9.7753 5.75 9.77535C5.75 9.77541 5.75 9.77546 5.75 9.77551C5.75 9.77557 5.75 9.77562 5.75 9.77568C5.75 9.77573 5.75 9.77578 5.75 9.77584C5.75 9.77589 5.75 9.77594 5.75 9.776C5.75 9.77605 5.75 9.7761 5.75 9.77616C5.75 9.77621 5.75 9.77626 5.75 9.77632C5.75 9.77637 5.75 9.77642 5.75 9.77648C5.75 9.77653 5.75 9.77658 5.75 9.77663C5.75 9.77668 5.75 9.77674 5.75 9.77679C5.75 9.77684 5.75 9.77689 5.75 9.77694C5.75 9.777 5.75 9.77705 5.75 9.7771C5.75 9.77715 5.75 9.7772 5.75 9.77725C5.75 9.7773 5.75 9.77736 5.75 9.77741C5.75 9.77746 5.75 9.77751 5.75 9.77756C5.75 9.77761 5.75 9.77766 5.75 9.77771C5.75 9.77776 5.75 9.77781 5.75 9.77786C5.75 9.77791 5.75 9.77796 5.75 9.77801C5.75 9.77806 5.75 9.77811 5.75 9.77816C5.75 9.77821 5.75 9.77826 5.75 9.77831C5.75 9.77836 5.75 9.77841 5.75 9.77846C5.75 9.77851 5.75 9.77856 5.75 9.7786C5.75 9.77865 5.75 9.7787 5.75 9.77875C5.75 9.7788 5.75 9.77885 5.75 9.7789C5.75 9.77894 5.75 9.77899 5.75 9.77904C5.75 9.77909 5.75 9.77914 5.75 9.77918C5.75 9.77923 5.75 9.77928 5.75 9.77933C5.75 9.77938 5.75 9.77942 5.75 9.77947C5.75 9.77952 5.75 9.77956 5.75 9.77961C5.75 9.77966 5.75 9.77971 5.75 9.77975C5.75 9.7798 5.75 9.77985 5.75 9.77989C5.75 9.77994 5.75 9.77999 5.75 9.78003C5.75 9.78008 5.75 9.78012 5.75 9.78017C5.75 9.78022 5.75 9.78026 5.75 9.78031C5.75 9.78035 5.75 9.7804 5.75 9.78044C5.75 9.78049 5.75 9.78054 5.75 9.78058C5.75 9.78063 5.75 9.78067 5.75 9.78072C5.75 9.78076 5.75 9.78081 5.75 9.78085C5.75 9.7809 5.75 9.78094 5.75 9.78098C5.75 9.78103 5.75 9.78107 5.75 9.78112C5.75 9.78116 5.75 9.78121 5.75 9.78125C5.75 9.78129 5.75 9.78134 5.75 9.78138C5.75 9.78143 5.75 9.78147 5.75 9.78151C5.75 9.78156 5.75 9.7816 5.75 9.78164C5.75 9.78169 5.75 9.78173 5.75 9.78177C5.75 9.78182 5.75 9.78186 5.75 9.7819C5.75 9.78194 5.75 9.78199 5.75 9.78203C5.75 9.78207 5.75 9.78211 5.75 9.78216C5.75 9.7822 5.75 9.78224 5.75 9.78228C5.75 9.78232 5.75 9.78237 5.75 9.78241C5.75 9.78245 5.75 9.78249 5.75 9.78253C5.75 9.78258 5.75 9.78262 5.75 9.78266C5.75 9.7827 5.75 9.78274 5.75 9.78278C5.75 9.78282 5.75 9.78286 5.75 9.7829C5.75 9.78295 5.75 9.78299 5.75 9.78303C5.75 9.78307 5.75 9.78311 5.75 9.78315C5.75 9.78319 5.75 9.78323 5.75 9.78327C5.75 9.78331 5.75 9.78335 5.75 9.78339C5.75 9.78343 5.75 9.78347 5.75 9.78351C5.75 9.78355 5.75 9.78359 5.75 9.78363C5.75 9.78367 5.75 9.78371 5.75 9.78374C5.75 9.78378 5.75 9.78382 5.75 9.78386C5.75 9.7839 5.75 9.78394 5.75 9.78398C5.75 9.78402 5.75 9.78406 5.75 9.78409C5.75 9.78413 5.75 9.78417 5.75 9.78421C5.75 9.78425 5.75 9.78429 5.75 9.78432C5.75 9.78436 5.75 9.7844 5.75 9.78444C5.75 9.78448 5.75 9.78451 5.75 9.78455C5.75 9.78459 5.75 9.78463 5.75 9.78466C5.75 9.7847 5.75 9.78474 5.75 9.78478C5.75 9.78481 5.75 9.78485 5.75 9.78489C5.75 9.78492 5.75 9.78496 5.75 9.785C5.75 9.78503 5.75 9.78507 5.75 9.78511C5.75 9.78514 5.75 9.78518 5.75 9.78521C5.75 9.78525 5.75 9.78529 5.75 9.78532C5.75 9.78536 5.75 9.7854 5.75 9.78543C5.75 9.78547 5.75 9.7855 5.75 9.78554C5.75 9.78557 5.75 9.78561 5.75 9.78564C5.75 9.78568 5.75 9.78571 5.75 9.78575C5.75 9.78578 5.75 9.78582 5.75 9.78585C5.75 9.78589 5.75 9.78592 5.75 9.78596C5.75 9.78599 5.75 9.78603 5.75 9.78606C5.75 9.7861 5.75 9.78613 5.75 9.78617C5.75 9.7862 5.75 9.78623 5.75 9.78627C5.75 9.7863 5.75 9.78634 5.75 9.78637C5.75 9.7864 5.75 9.78644 5.75 9.78647C5.75 9.7865 5.75 9.78654 5.75 9.78657C5.75 9.7866 5.75 9.78664 5.75 9.78667C5.75 9.7867 5.75 9.78674 5.75 9.78677C5.75 9.7868 5.75 9.78684 5.75 9.78687C5.75 9.7869 5.75 9.78693 5.75 9.78697C5.75 9.787 5.75 9.78703 5.75 9.78706C5.75 9.7871 5.75 9.78713 5.75 9.78716C5.75 9.78719 5.75 9.78722 5.75 9.78726C5.75 9.78729 5.75 9.78732 5.75 9.78735C5.75 9.78738 5.75 9.78741 5.75 9.78745C5.75 9.78748 5.75 9.78751 5.75 9.78754C5.75 9.78757 5.75 9.7876 5.75 9.78763C5.75 9.78766 5.75 9.78769 5.75 9.78773C5.75 9.78776 5.75 9.78779 5.75 9.78782C5.75 9.78785 5.75 9.78788 5.75 9.78791C5.75 9.78794 5.75 9.78797 5.75 9.788C5.75 9.78803 5.75 9.78806 5.75 9.78809C5.75 9.78812 5.75 9.78815 5.75 9.78818C5.75 9.78821 5.75 9.78824 5.75 9.78827C5.75 9.7883 5.75 9.78833 5.75 9.78836C5.75 9.78839 5.75 9.78842 5.75 9.78845C5.75 9.78847 5.75 9.7885 5.75 9.78853C5.75 9.78856 5.75 9.78859 5.75 9.78862C5.75 9.78865 5.75 9.78868 5.75 9.7887C5.75 9.78873 5.75 9.78876 5.75 9.78879C5.75 9.78882 5.75 9.78885 5.75 9.78888C5.75 9.7889 5.75 9.78893 5.75 9.78896C5.75 9.78899 5.75 9.78902 5.75 9.78904C5.75 9.78907 5.75 9.7891 5.75 9.78913C5.75 9.78915 5.75 9.78918 5.75 9.78921C5.75 9.78924 5.75 9.78926 5.75 9.78929C5.75 9.78932 5.75 9.78934 5.75 9.78937C5.75 9.7894 5.75 9.78943 5.75 9.78945C5.75 9.78948 5.75 9.78951 5.75 9.78953C5.75 9.78956 5.75 9.78959 5.75 9.78961C5.75 9.78964 5.75 9.78966 5.75 9.78969C5.75 9.78972 5.75 9.78974 5.75 9.78977C5.75 9.7898 5.75 9.78982 5.75 9.78985C5.75 9.78987 5.75 9.7899 5.75 9.78992C5.75 9.78995 5.75 9.78998 5.75 9.79C5.75 9.79003 5.75 9.79005 5.75 9.79008C5.75 9.7901 5.75 9.79013 5.75 9.79015C5.75 9.79018 5.75 9.7902 5.75 9.79023C5.75 9.79025 5.75 9.79028 5.75 9.7903C5.75 9.79033 5.75 9.79035 5.75 9.79038C5.75 9.7904 5.75 9.79042 5.75 9.79045C5.75 9.79047 5.75 9.7905 5.75 9.79052C5.75 9.79055 5.75 9.79057 5.75 9.79059C5.75 9.79062 5.75 9.79064 5.75 9.79067C5.75 9.79069 5.75 9.79071 5.75 9.79074C5.75 9.79076 5.75 9.79078 5.75 9.79081C5.75 9.79083 5.75 9.79085 5.75 9.79088C5.75 9.7909 5.75 9.79092 5.75 9.79095C5.75 9.79097 5.75 9.79099 5.75 9.79102C5.75 9.79104 5.75 9.79106 5.75 9.79108C5.75 9.79111 5.75 9.79113 5.75 9.79115C5.75 9.79117 5.75 9.7912 5.75 9.79122C5.75 9.79124 5.75 9.79126 5.75 9.79129C5.75 9.79131 5.75 9.79133 5.75 9.79135C5.75 9.79137 5.75 9.7914 5.75 9.79142C5.75 9.79144 5.75 9.79146 5.75 9.79148C5.75 9.7915 5.75 9.79153 5.75 9.79155C5.75 9.79157 5.75 9.79159 5.75 9.79161C5.75 9.79163 5.75 9.79165 5.75 9.79168C5.75 9.7917 5.75 9.79172 5.75 9.79174C5.75 9.79176 5.75 9.79178 5.75 9.7918C5.75 9.79182 5.75 9.79184 5.75 9.79186C5.75 9.79188 5.75 9.7919 5.75 9.79193C5.75 9.79195 5.75 9.79197 5.75 9.79199C5.75 9.79201 5.75 9.79203 5.75 9.79205C5.75 9.79207 5.75 9.79209 5.75 9.79211C5.75 9.79213 5.75 9.79215 5.75 9.79217C5.75 9.79219 5.75 9.79221 5.75 9.79223C5.75 9.79225 5.75 9.79226 5.75 9.79228C5.75 9.7923 5.75 9.79232 5.75 9.79234C5.75 9.79236 5.75 9.79238 5.75 9.7924C5.75 9.79242 5.75 9.79244 5.75 9.79246C5.75 9.79248 5.75 9.7925 5.75 9.79251C5.75 9.79253 5.75 9.79255 5.75 9.79257C5.75 9.79259 5.75 9.79261 5.75 9.79263C5.75 9.79264 5.75 9.79266 5.75 9.79268C5.75 9.7927 5.75 9.79272 5.75 9.79274C5.75 9.79275 5.75 9.79277 5.75 9.79279C5.75 9.79281 5.75 9.79283 5.75 9.79284C5.75 9.79286 5.75 9.79288 5.75 9.7929C5.75 9.79291 5.75 9.79293 5.75 9.79295C5.75 9.79297 5.75 9.79298 5.75 9.793C5.75 9.79302 5.75 9.79304 5.75 9.79305C5.75 9.79307 5.75 9.79309 5.75 9.79311C5.75 9.79312 5.75 9.79314 5.75 9.79316C5.75 9.79317 5.75 9.79319 5.75 9.79321C5.75 9.79322 5.75 9.79324 5.75 9.79326C5.75 9.79327 5.75 9.79329 5.75 9.79331C5.75 9.79332 5.75 9.79334 5.75 9.79336C5.75 9.79337 5.75 9.79339 5.75 9.7934C5.75 9.79342 5.75 9.79344 5.75 9.79345C5.75 9.79347 5.75 9.79348 5.75 9.7935C5.75 9.79352 5.75 9.79353 5.75 9.79355C5.75 9.79356 5.75 9.79358 5.75 9.79359C5.75 9.79361 5.75 9.79363 5.75 9.79364C5.75 9.79366 5.75 9.79367 5.75 9.79369C5.75 9.7937 5.75 9.79372 5.75 9.79373C5.75 9.79375 5.75 9.79376 5.75 9.79378C5.75 9.79379 5.75 9.79381 5.75 9.79382C5.75 9.79384 5.75 9.79385 5.75 9.79387C5.75 9.79388 5.75 9.7939 5.75 9.79391C5.75 9.79392 5.75 9.79394 5.75 9.79395C5.75 9.79397 5.75 9.79398 5.75 9.794C5.75 9.79401 5.75 9.79402 5.75 9.79404C5.75 9.79405 5.75 9.79407 5.75 9.79408C5.75 9.7941 5.75 9.79411 5.75 9.79412C5.75 9.79414 5.75 9.79415 5.75 9.79416C5.75 9.79418 5.75 9.79419 5.75 9.7942C5.75 9.79422 5.75 9.79423 5.75 9.79425C5.75 9.79426 5.75 9.79427 5.75 9.79429C5.75 9.7943 5.75 9.79431 5.75 9.79433C5.75 9.79434 5.75 9.79435 5.75 9.79436C5.75 9.79438 5.75 9.79439 5.75 9.7944C5.75 9.79442 5.75 9.79443 5.75 9.79444C5.75 9.79445 5.75 9.79447 5.75 9.79448C5.75 9.79449 5.75 9.7945 5.75 9.79452C5.75 9.79453 5.75 9.79454 5.75 9.79455C5.75 9.79457 5.75 9.79458 5.75 9.79459C5.75 9.7946 5.75 9.79462 5.75 9.79463C5.75 9.79464 5.75 9.79465 5.75 9.79466C5.75 9.79468 5.75 9.79469 5.75 9.7947C5.75 9.79471 5.75 9.79472 5.75 9.79473C5.75 9.79475 5.75 9.79476 5.75 9.79477C5.75 9.79478 5.75 9.79479 5.75 9.7948C5.75 9.79482 5.75 9.79483 5.75 9.79484C5.75 9.79485 5.75 9.79486 5.75 9.79487C5.75 9.79488 5.75 9.79489 5.75 9.79491C5.75 9.79492 5.75 9.79493 5.75 9.79494C5.75 9.79495 5.75 9.79496 5.75 9.79497C5.75 9.79498 5.75 9.79499 5.75 9.795C5.75 9.79501 5.75 9.79502 5.75 9.79504C5.75 9.79505 5.75 9.79506 5.75 9.79507C5.75 9.79508 5.75 9.79509 5.75 9.7951C5.75 9.79511 5.75 9.79512 5.75 9.79513C5.75 9.79514 5.75 9.79515 5.75 9.79516C5.75 9.79517 5.75 9.79518 5.75 9.79519C5.75 9.7952 5.75 9.79521 5.75 9.79522C5.75 9.79523 5.75 9.79524 5.75 9.79525C5.75 9.79526 5.75 9.79527 5.75 9.79528C5.75 9.79529 5.75 9.7953 5.75 9.79531C5.75 9.79532 5.75 9.79533 5.75 9.79533C5.75 9.79534 5.75 9.79535 5.75 9.79536C5.75 9.79537 5.75 9.79538 5.75 9.79539C5.75 9.7954 5.75 9.79541 5.75 9.79542C5.75 9.79543 5.75 9.79544 5.75 9.79544C5.75 9.79545 5.75 9.79546 5.75 9.79547C5.75 9.79548 5.75 9.79549 5.75 9.7955C5.75 9.79551 5.75 9.79551 5.75 9.79552C5.75 9.79553 5.75 9.79554 5.75 9.79555C5.75 9.79556 5.75 9.79557 5.75 9.79557C5.75 9.79558 5.75 9.79559 5.75 9.7956C5.75 9.79561 5.75 9.79562 5.75 9.79562C5.75 9.79563 5.75 9.79564 5.75 9.79565C5.75 9.79566 5.75 9.79566 5.75 9.79567C5.75 9.79568 5.75 9.79569 5.75 9.7957C5.75 9.7957 5.75 9.79571 5.75 9.79572C5.75 9.79573 5.75 9.79574 5.75 9.79574C5.75 9.79575 5.75 9.79576 5.75 9.79577C5.75 9.79577 5.75 9.79578 5.75 9.79579C5.75 9.7958 5.75 9.7958 5.75 9.79581C5.75 9.79582 5.75 9.79582 5.75 9.79583C5.75 9.79584 5.75 9.79585 5.75 9.79585C5.75 9.79586 5.75 9.79587 5.75 9.79588C5.75 9.79588 5.75 9.79589 5.75 9.7959C5.75 9.7959 5.75 9.79591 5.75 9.79592C5.75 9.79592 5.75 9.79593 5.75 9.79594C5.75 9.79594 5.75 9.79595 5.75 9.79596C5.75 9.79596 5.75 9.79597 5.75 9.79598C5.75 9.79598 5.75 9.79599 5.75 9.796C5.75 9.796 5.75 9.79601 5.75 9.79602C5.75 9.79602 5.75 9.79603 5.75 9.79603C5.75 9.79604 5.75 9.79605 5.75 9.79605C5.75 9.79606 5.75 9.79607 5.75 9.79607C5.75 9.79608 5.75 9.79608 5.75 9.79609C5.75 9.7961 5.75 9.7961 5.75 9.79611C5.75 9.79611 5.75 9.79612 5.75 9.79613C5.75 9.79613 5.75 9.79614 5.75 9.79614C5.75 9.79615 5.75 9.79615 5.75 9.79616C5.75 9.79617 5.75 9.79617 5.75 9.79618C5.75 9.79618 5.75 9.79619 5.75 9.79619C5.75 9.7962 5.75 9.7962 5.75 9.79621C5.75 9.79621 5.75 9.79622 5.75 9.79623C5.75 9.79623 5.75 9.79624 5.75 9.79624C5.75 9.79625 5.75 9.79625 5.75 9.79626C5.75 9.79626 5.75 9.79627 5.75 9.79627C5.75 9.79628 5.75 9.79628 5.75 9.79629C5.75 9.79629 5.75 9.7963 5.75 9.7963C5.75 9.79631 5.75 9.79631 5.75 9.79632C5.75 9.79632 5.75 9.79633 5.75 9.79633C5.75 9.79633 5.75 9.79634 5.75 9.79634C5.75 9.79635 5.75 9.79635 5.75 9.79636C5.75 9.79636 5.75 9.79637 5.75 9.79637C5.75 9.79638 5.75 9.79638 5.75 9.79638C5.75 9.79639 5.75 9.79639 5.75 9.7964C5.75 9.7964 5.75 9.79641 5.75 9.79641C5.75 9.79641 5.75 9.79642 5.75 9.79642C5.75 9.79643 5.75 9.79643 5.75 9.79644C5.75 9.79644 5.75 9.79644 5.75 9.79645C5.75 9.79645 5.75 9.79646 5.75 9.79646C5.75 9.79646 5.75 9.79647 5.75 9.79647C5.75 9.79647 5.75 9.79648 5.75 9.79648C5.75 9.79649 5.75 9.79649 5.75 9.79649C5.75 9.7965 5.75 9.7965 5.75 9.7965C5.75 9.79651 5.75 9.79651 5.75 9.79652C5.75 9.79652 5.75 9.79652 5.75 9.79653C5.75 9.79653 5.75 9.79653 5.75 9.79654C5.75 9.79654 5.75 9.79654 5.75 9.79655C5.75 9.79655 5.75 9.79655 5.75 9.79656C5.75 9.79656 5.75 9.79656 5.75 9.79657C5.75 9.79657 5.75 9.79657 5.75 9.79658C5.75 9.79658 5.75 9.79658 5.75 9.79658C5.75 9.79659 5.75 9.79659 5.75 9.79659C5.75 9.7966 5.75 9.7966 5.75 9.7966C5.75 9.79661 5.75 9.79661 5.75 9.79661C5.75 9.79661 5.75 9.79662 5.75 9.79662C5.75 9.79662 5.75 9.79663 5.75 9.79663C5.75 9.79663 5.75 9.79663 5.75 9.79664C5.75 9.79664 5.75 9.79664 5.75 9.79665C5.75 9.79665 5.75 9.79665 5.75 9.79665C5.75 9.79666 5.75 9.79666 5.75 9.79666C5.75 9.79666 5.75 9.79667 5.75 9.79667C5.75 9.79667 5.75 9.79667 5.75 9.79668C5.75 9.79668 5.75 9.79668 5.75 9.79668C5.75 9.79668 5.75 9.79669 5.75 9.79669C5.75 9.79669 5.75 9.79669 5.75 9.7967C5.75 9.7967 5.75 9.7967 5.75 9.7967C5.75 9.7967 5.75 9.79671 5.75 9.79671C5.75 9.79671 5.75 9.79671 5.75 9.79672C5.75 9.79672 5.75 9.79672 5.75 9.79672C5.75 9.79672 5.75 9.79673 5.75 9.79673C5.75 9.79673 5.75 9.79673 5.75 9.79673C5.75 9.79674 5.75 9.79674 5.75 9.79674C5.75 9.79674 5.75 9.79674 5.75 9.79674C5.75 9.79675 5.75 9.79675 5.75 9.79675C5.75 9.79675 5.75 9.79675 5.75 9.79676C5.75 9.79676 5.75 9.79676 5.75 9.79676C5.75 9.79676 5.75 9.79676 5.75 9.79677C5.75 9.79677 5.75 9.79677 5.75 9.79677C5.75 9.79677 5.75 9.79677 5.75 9.79677C5.75 9.79678 5.75 9.79678 5.75 9.79678C5.75 9.79678 5.75 9.79678 5.75 9.79678C5.75 9.79678 5.75 9.79679 5.75 9.79679C5.75 9.79679 5.75 9.79679 5.75 9.79679C5.75 9.79679 5.75 9.79679 5.75 9.7968C5.75 9.7968 5.75 9.7968 5.75 9.7968C5.75 9.7968 5.75 9.7968 5.75 9.7968C5.75 9.7968 5.75 9.79681 5.75 9.79681C5.75 9.79681 5.75 9.79681 5.75 9.79681C5.75 9.79681 5.75 9.79681 5.75 9.79681C5.75 9.79681 5.75 9.79682 5.75 9.79682C5.75 9.79682 5.75 9.79682 5.75 9.79682C5.75 9.79682 5.75 9.79682 5.75 9.79682C5.75 9.79682 5.75 9.79682 5.75 9.79683C5.75 9.79683 5.75 9.79683 5.75 9.79683C5.75 9.79683 5.75 9.79683 5.75 9.79683C5.75 9.79683 5.75 9.79683 5.75 9.79683C5.75 9.79683 5.75 9.79684 5.75 9.79684C5.75 9.79684 5.75 9.79684 5.75 9.79684C5.75 9.79684 5.75 9.79684 5.75 9.79684C5.75 9.79684 5.75 9.79684 5.75 9.79684C5.75 9.79684 5.75 9.79684 5.75 9.79685C5.75 9.79685 5.75 9.79685 5.75 9.79685C5.75 9.79685 5.75 9.79685 5.75 9.79685C5.75 9.79685 5.75 9.79685 5.75 9.79685C5.75 9.79685 5.75 9.79685 5.75 9.79685C5.75 9.79685 5.75 9.79685 5.75 9.79685C5.75 9.79685 5.75 9.79686 5.75 9.79686C5.75 9.79686 5.75 9.79686 5.75 9.79686C5.75 9.79686 5.75 9.79686 5.75 9.79686C5.75 9.79686 5.75 9.79686 5.75 9.79686C5.75 9.79686 5.75 9.79686 5.75 9.79686C5.75 9.79686 5.75 9.79686 5.75 9.79686C5.75 9.79686 5.75 9.79686 5.75 9.79686C5.75 9.79686 5.75 9.79686 5.75 9.79686C5.75 9.79686 5.75 9.79687 5.75 9.79687C5.75 9.79687 5.75 9.79687 5.75 9.79687C5.75 9.79687 5.75 9.79687 5.75 9.79687C5.75 9.79687 5.75 9.79687 5.75 9.79687C5.75 9.79687 5.75 9.79687 5.75 9.79687C5.75 9.79687 5.75 9.79687 5.75 9.79687C5.75 9.79687 5.75 9.79687 5.75 9.79687C5.75 9.79687 5.75 9.79687 5.75 9.79687C5.75 9.79687 5.75 9.79687 5.75 9.79687C5.75 9.79687 5.75 9.79687 5.75 9.79687C5.75 9.79687 5.75 9.79687 5.75 9.79687C5.75 9.79687 5.75 9.79687 5.75 9.79687C5.75 9.79687 5.75 9.79687 5.75 9.79687C5.75 9.79687 5.75 9.79687 5.75 9.79687C5.75 9.79687 5.75 9.79687 5.75 9.79687C5.75 9.79687 5.75 9.79687 5.75 9.79687C5.75 9.79687 5.75 9.79687 5.75 9.79687C5.75 9.79687 5.75 9.79687 5.75 9.79687C5.75 9.79687 5.75 9.79687 5.75 9.79687C5.75 9.79687 5.75 9.79687 5.75 9.79687C5.75 9.79687 5.75 9.79687 5.75 9.79687C5.75 9.79687 5.75 9.79687 5.75 9.79687C5.75 9.79687 5.75 9.79687 5.75 9.79687C5.75 9.79687 5.75 9.79687 5.75 9.79687C5.75 9.79687 5.75 9.79687 5.75 9.79687C5.75 9.79687 5.75 9.79687 5.75 9.79687C5.75 9.79687 5.75 9.79687 5.75 9.79687C5.75 9.79687 5.75 9.79687 5.75 9.79687C5.75 9.79687 5.75 9.79687 5.75 9.79687C5.75 9.79687 5.75 9.79687 5.75 9.79687C5.75 9.79688 6.25 9.79688 6.25 9.79688C6.25 9.79688 6.75 9.79688 6.75 9.79687C6.75 9.79687 6.75 9.79687 6.75 9.79687C6.75 9.79687 6.75 9.79687 6.75 9.79687C6.75 9.79687 6.75 9.79687 6.75 9.79687C6.75 9.79687 6.75 9.79687 6.75 9.79687C6.75 9.79687 6.75 9.79687 6.75 9.79687C6.75 9.79687 6.75 9.79687 6.75 9.79687C6.75 9.79687 6.75 9.79687 6.75 9.79687C6.75 9.79687 6.75 9.79687 6.75 9.79687C6.75 9.79687 6.75 9.79687 6.75 9.79687C6.75 9.79687 6.75 9.79687 6.75 9.79687C6.75 9.79687 6.75 9.79687 6.75 9.79687C6.75 9.79687 6.75 9.79687 6.75 9.79687C6.75 9.79687 6.75 9.79687 6.75 9.79687C6.75 9.79687 6.75 9.79687 6.75 9.79687C6.75 9.79687 6.75 9.79687 6.75 9.79687C6.75 9.79687 6.75 9.79687 6.75 9.79687C6.75 9.79687 6.75 9.79687 6.75 9.79687C6.75 9.79687 6.75 9.79687 6.75 9.79687C6.75 9.79687 6.75 9.79687 6.75 9.79687C6.75 9.79687 6.75 9.79687 6.75 9.79687C6.75 9.79687 6.75 9.79687 6.75 9.79687C6.75 9.79687 6.75 9.79687 6.75 9.79687C6.75 9.79687 6.75 9.79687 6.75 9.79687C6.75 9.79687 6.75 9.79687 6.75 9.79687C6.75 9.79687 6.75 9.79687 6.75 9.79687C6.75 9.79687 6.75 9.79687 6.75 9.79687C6.75 9.79687 6.75 9.79687 6.75 9.79687C6.75 9.79687 6.75 9.79687 6.75 9.79687C6.75 9.79687 6.75 9.79687 6.75 9.79687C6.75 9.79687 6.75 9.79686 6.75 9.79686C6.75 9.79686 6.75 9.79686 6.75 9.79686C6.75 9.79686 6.75 9.79686 6.75 9.79686C6.75 9.79686 6.75 9.79686 6.75 9.79686C6.75 9.79686 6.75 9.79686 6.75 9.79686C6.75 9.79686 6.75 9.79686 6.75 9.79686C6.75 9.79686 6.75 9.79686 6.75 9.79686C6.75 9.79686 6.75 9.79686 6.75 9.79686C6.75 9.79686 6.75 9.79685 6.75 9.79685C6.75 9.79685 6.75 9.79685 6.75 9.79685C6.75 9.79685 6.75 9.79685 6.75 9.79685C6.75 9.79685 6.75 9.79685 6.75 9.79685C6.75 9.79685 6.75 9.79685 6.75 9.79685C6.75 9.79685 6.75 9.79685 6.75 9.79685C6.75 9.79684 6.75 9.79684 6.75 9.79684C6.75 9.79684 6.75 9.79684 6.75 9.79684C6.75 9.79684 6.75 9.79684 6.75 9.79684C6.75 9.79684 6.75 9.79684 6.75 9.79684C6.75 9.79684 6.75 9.79683 6.75 9.79683C6.75 9.79683 6.75 9.79683 6.75 9.79683C6.75 9.79683 6.75 9.79683 6.75 9.79683C6.75 9.79683 6.75 9.79683 6.75 9.79683C6.75 9.79682 6.75 9.79682 6.75 9.79682C6.75 9.79682 6.75 9.79682 6.75 9.79682C6.75 9.79682 6.75 9.79682 6.75 9.79682C6.75 9.79682 6.75 9.79681 6.75 9.79681C6.75 9.79681 6.75 9.79681 6.75 9.79681C6.75 9.79681 6.75 9.79681 6.75 9.79681C6.75 9.79681 6.75 9.7968 6.75 9.7968C6.75 9.7968 6.75 9.7968 6.75 9.7968C6.75 9.7968 6.75 9.7968 6.75 9.7968C6.75 9.79679 6.75 9.79679 6.75 9.79679C6.75 9.79679 6.75 9.79679 6.75 9.79679C6.75 9.79679 6.75 9.79678 6.75 9.79678C6.75 9.79678 6.75 9.79678 6.75 9.79678C6.75 9.79678 6.75 9.79678 6.75 9.79677C6.75 9.79677 6.75 9.79677 6.75 9.79677C6.75 9.79677 6.75 9.79677 6.75 9.79677C6.75 9.79676 6.75 9.79676 6.75 9.79676C6.75 9.79676 6.75 9.79676 6.75 9.79676C6.75 9.79675 6.75 9.79675 6.75 9.79675C6.75 9.79675 6.75 9.79675 6.75 9.79674C6.75 9.79674 6.75 9.79674 6.75 9.79674C6.75 9.79674 6.75 9.79674 6.75 9.79673C6.75 9.79673 6.75 9.79673 6.75 9.79673C6.75 9.79673 6.75 9.79672 6.75 9.79672C6.75 9.79672 6.75 9.79672 6.75 9.79672C6.75 9.79671 6.75 9.79671 6.75 9.79671C6.75 9.79671 6.75 9.7967 6.75 9.7967C6.75 9.7967 6.75 9.7967 6.75 9.7967C6.75 9.79669 6.75 9.79669 6.75 9.79669C6.75 9.79669 6.75 9.79668 6.75 9.79668C6.75 9.79668 6.75 9.79668 6.75 9.79668C6.75 9.79667 6.75 9.79667 6.75 9.79667C6.75 9.79667 6.75 9.79666 6.75 9.79666C6.75 9.79666 6.75 9.79666 6.75 9.79665C6.75 9.79665 6.75 9.79665 6.75 9.79665C6.75 9.79664 6.75 9.79664 6.75 9.79664C6.75 9.79663 6.75 9.79663 6.75 9.79663C6.75 9.79663 6.75 9.79662 6.75 9.79662C6.75 9.79662 6.75 9.79661 6.75 9.79661C6.75 9.79661 6.75 9.79661 6.75 9.7966C6.75 9.7966 6.75 9.7966 6.75 9.79659C6.75 9.79659 6.75 9.79659 6.75 9.79658C6.75 9.79658 6.75 9.79658 6.75 9.79658C6.75 9.79657 6.75 9.79657 6.75 9.79657C6.75 9.79656 6.75 9.79656 6.75 9.79656C6.75 9.79655 6.75 9.79655 6.75 9.79655C6.75 9.79654 6.75 9.79654 6.75 9.79654C6.75 9.79653 6.75 9.79653 6.75 9.79653C6.75 9.79652 6.75 9.79652 6.75 9.79652C6.75 9.79651 6.75 9.79651 6.75 9.7965C6.75 9.7965 6.75 9.7965 6.75 9.79649C6.75 9.79649 6.75 9.79649 6.75 9.79648C6.75 9.79648 6.75 9.79647 6.75 9.79647C6.75 9.79647 6.75 9.79646 6.75 9.79646C6.75 9.79646 6.75 9.79645 6.75 9.79645C6.75 9.79644 6.75 9.79644 6.75 9.79644C6.75 9.79643 6.75 9.79643 6.75 9.79642C6.75 9.79642 6.75 9.79641 6.75 9.79641C6.75 9.79641 6.75 9.7964 6.75 9.7964C6.75 9.79639 6.75 9.79639 6.75 9.79638C6.75 9.79638 6.75 9.79638 6.75 9.79637C6.75 9.79637 6.75 9.79636 6.75 9.79636C6.75 9.79635 6.75 9.79635 6.75 9.79634C6.75 9.79634 6.75 9.79633 6.75 9.79633C6.75 9.79633 6.75 9.79632 6.75 9.79632C6.75 9.79631 6.75 9.79631 6.75 9.7963C6.75 9.7963 6.75 9.79629 6.75 9.79629C6.75 9.79628 6.75 9.79628 6.75 9.79627C6.75 9.79627 6.75 9.79626 6.75 9.79626C6.75 9.79625 6.75 9.79625 6.75 9.79624C6.75 9.79624 6.75 9.79623 6.75 9.79623C6.75 9.79622 6.75 9.79621 6.75 9.79621C6.75 9.7962 6.75 9.7962 6.75 9.79619C6.75 9.79619 6.75 9.79618 6.75 9.79618C6.75 9.79617 6.75 9.79617 6.75 9.79616C6.75 9.79615 6.75 9.79615 6.75 9.79614C6.75 9.79614 6.75 9.79613 6.75 9.79613C6.75 9.79612 6.75 9.79611 6.75 9.79611C6.75 9.7961 6.75 9.7961 6.75 9.79609C6.75 9.79608 6.75 9.79608 6.75 9.79607C6.75 9.79607 6.75 9.79606 6.75 9.79605C6.75 9.79605 6.75 9.79604 6.75 9.79603C6.75 9.79603 6.75 9.79602 6.75 9.79602C6.75 9.79601 6.75 9.796 6.75 9.796C6.75 9.79599 6.75 9.79598 6.75 9.79598C6.75 9.79597 6.75 9.79596 6.75 9.79596C6.75 9.79595 6.75 9.79594 6.75 9.79594C6.75 9.79593 6.75 9.79592 6.75 9.79592C6.75 9.79591 6.75 9.7959 6.75 9.7959C6.75 9.79589 6.75 9.79588 6.75 9.79588C6.75 9.79587 6.75 9.79586 6.75 9.79585C6.75 9.79585 6.75 9.79584 6.75 9.79583C6.75 9.79582 6.75 9.79582 6.75 9.79581C6.75 9.7958 6.75 9.7958 6.75 9.79579C6.75 9.79578 6.75 9.79577 6.75 9.79577C6.75 9.79576 6.75 9.79575 6.75 9.79574C6.75 9.79574 6.75 9.79573 6.75 9.79572C6.75 9.79571 6.75 9.7957 6.75 9.7957C6.75 9.79569 6.75 9.79568 6.75 9.79567C6.75 9.79566 6.75 9.79566 6.75 9.79565C6.75 9.79564 6.75 9.79563 6.75 9.79562C6.75 9.79562 6.75 9.79561 6.75 9.7956C6.75 9.79559 6.75 9.79558 6.75 9.79557C6.75 9.79557 6.75 9.79556 6.75 9.79555C6.75 9.79554 6.75 9.79553 6.75 9.79552C6.75 9.79551 6.75 9.79551 6.75 9.7955C6.75 9.79549 6.75 9.79548 6.75 9.79547C6.75 9.79546 6.75 9.79545 6.75 9.79544C6.75 9.79544 6.75 9.79543 6.75 9.79542C6.75 9.79541 6.75 9.7954 6.75 9.79539C6.75 9.79538 6.75 9.79537 6.75 9.79536C6.75 9.79535 6.75 9.79534 6.75 9.79533C6.75 9.79533 6.75 9.79532 6.75 9.79531C6.75 9.7953 6.75 9.79529 6.75 9.79528C6.75 9.79527 6.75 9.79526 6.75 9.79525C6.75 9.79524 6.75 9.79523 6.75 9.79522C6.75 9.79521 6.75 9.7952 6.75 9.79519C6.75 9.79518 6.75 9.79517 6.75 9.79516C6.75 9.79515 6.75 9.79514 6.75 9.79513C6.75 9.79512 6.75 9.79511 6.75 9.7951C6.75 9.79509 6.75 9.79508 6.75 9.79507C6.75 9.79506 6.75 9.79505 6.75 9.79504C6.75 9.79502 6.75 9.79501 6.75 9.795C6.75 9.79499 6.75 9.79498 6.75 9.79497C6.75 9.79496 6.75 9.79495 6.75 9.79494C6.75 9.79493 6.75 9.79492 6.75 9.79491C6.75 9.79489 6.75 9.79488 6.75 9.79487C6.75 9.79486 6.75 9.79485 6.75 9.79484C6.75 9.79483 6.75 9.79482 6.75 9.7948C6.75 9.79479 6.75 9.79478 6.75 9.79477C6.75 9.79476 6.75 9.79475 6.75 9.79473C6.75 9.79472 6.75 9.79471 6.75 9.7947C6.75 9.79469 6.75 9.79468 6.75 9.79466C6.75 9.79465 6.75 9.79464 6.75 9.79463C6.75 9.79462 6.75 9.7946 6.75 9.79459C6.75 9.79458 6.75 9.79457 6.75 9.79455C6.75 9.79454 6.75 9.79453 6.75 9.79452C6.75 9.7945 6.75 9.79449 6.75 9.79448C6.75 9.79447 6.75 9.79445 6.75 9.79444C6.75 9.79443 6.75 9.79442 6.75 9.7944C6.75 9.79439 6.75 9.79438 6.75 9.79436C6.75 9.79435 6.75 9.79434 6.75 9.79433C6.75 9.79431 6.75 9.7943 6.75 9.79429C6.75 9.79427 6.75 9.79426 6.75 9.79425C6.75 9.79423 6.75 9.79422 6.75 9.7942C6.75 9.79419 6.75 9.79418 6.75 9.79416C6.75 9.79415 6.75 9.79414 6.75 9.79412C6.75 9.79411 6.75 9.7941 6.75 9.79408C6.75 9.79407 6.75 9.79405 6.75 9.79404C6.75 9.79402 6.75 9.79401 6.75 9.794C6.75 9.79398 6.75 9.79397 6.75 9.79395C6.75 9.79394 6.75 9.79392 6.75 9.79391C6.75 9.7939 6.75 9.79388 6.75 9.79387C6.75 9.79385 6.75 9.79384 6.75 9.79382C6.75 9.79381 6.75 9.79379 6.75 9.79378C6.75 9.79376 6.75 9.79375 6.75 9.79373C6.75 9.79372 6.75 9.7937 6.75 9.79369C6.75 9.79367 6.75 9.79366 6.75 9.79364C6.75 9.79363 6.75 9.79361 6.75 9.79359C6.75 9.79358 6.75 9.79356 6.75 9.79355C6.75 9.79353 6.75 9.79352 6.75 9.7935C6.75 9.79348 6.75 9.79347 6.75 9.79345C6.75 9.79344 6.75 9.79342 6.75 9.7934C6.75 9.79339 6.75 9.79337 6.75 9.79336C6.75 9.79334 6.75 9.79332 6.75 9.79331C6.75 9.79329 6.75 9.79327 6.75 9.79326C6.75 9.79324 6.75 9.79322 6.75 9.79321C6.75 9.79319 6.75 9.79317 6.75 9.79316C6.75 9.79314 6.75 9.79312 6.75 9.79311C6.75 9.79309 6.75 9.79307 6.75 9.79305C6.75 9.79304 6.75 9.79302 6.75 9.793C6.75 9.79298 6.75 9.79297 6.75 9.79295C6.75 9.79293 6.75 9.79291 6.75 9.7929C6.75 9.79288 6.75 9.79286 6.75 9.79284C6.75 9.79283 6.75 9.79281 6.75 9.79279C6.75 9.79277 6.75 9.79275 6.75 9.79274C6.75 9.79272 6.75 9.7927 6.75 9.79268C6.75 9.79266 6.75 9.79264 6.75 9.79263C6.75 9.79261 6.75 9.79259 6.75 9.79257C6.75 9.79255 6.75 9.79253 6.75 9.79251C6.75 9.7925 6.75 9.79248 6.75 9.79246C6.75 9.79244 6.75 9.79242 6.75 9.7924C6.75 9.79238 6.75 9.79236 6.75 9.79234C6.75 9.79232 6.75 9.7923 6.75 9.79228C6.75 9.79226 6.75 9.79225 6.75 9.79223C6.75 9.79221 6.75 9.79219 6.75 9.79217C6.75 9.79215 6.75 9.79213 6.75 9.79211C6.75 9.79209 6.75 9.79207 6.75 9.79205C6.75 9.79203 6.75 9.79201 6.75 9.79199C6.75 9.79197 6.75 9.79195 6.75 9.79193C6.75 9.7919 6.75 9.79188 6.75 9.79186C6.75 9.79184 6.75 9.79182 6.75 9.7918C6.75 9.79178 6.75 9.79176 6.75 9.79174C6.75 9.79172 6.75 9.7917 6.75 9.79168C6.75 9.79165 6.75 9.79163 6.75 9.79161C6.75 9.79159 6.75 9.79157 6.75 9.79155C6.75 9.79153 6.75 9.7915 6.75 9.79148C6.75 9.79146 6.75 9.79144 6.75 9.79142C6.75 9.7914 6.75 9.79137 6.75 9.79135C6.75 9.79133 6.75 9.79131 6.75 9.79129C6.75 9.79126 6.75 9.79124 6.75 9.79122C6.75 9.7912 6.75 9.79117 6.75 9.79115C6.75 9.79113 6.75 9.79111 6.75 9.79108C6.75 9.79106 6.75 9.79104 6.75 9.79102C6.75 9.79099 6.75 9.79097 6.75 9.79095C6.75 9.79092 6.75 9.7909 6.75 9.79088C6.75 9.79085 6.75 9.79083 6.75 9.79081C6.75 9.79078 6.75 9.79076 6.75 9.79074C6.75 9.79071 6.75 9.79069 6.75 9.79067C6.75 9.79064 6.75 9.79062 6.75 9.79059C6.75 9.79057 6.75 9.79055 6.75 9.79052C6.75 9.7905 6.75 9.79047 6.75 9.79045C6.75 9.79042 6.75 9.7904 6.75 9.79038C6.75 9.79035 6.75 9.79033 6.75 9.7903C6.75 9.79028 6.75 9.79025 6.75 9.79023C6.75 9.7902 6.75 9.79018 6.75 9.79015C6.75 9.79013 6.75 9.7901 6.75 9.79008C6.75 9.79005 6.75 9.79003 6.75 9.79C6.75 9.78998 6.75 9.78995 6.75 9.78992C6.75 9.7899 6.75 9.78987 6.75 9.78985C6.75 9.78982 6.75 9.7898 6.75 9.78977C6.75 9.78974 6.75 9.78972 6.75 9.78969C6.75 9.78966 6.75 9.78964 6.75 9.78961C6.75 9.78959 6.75 9.78956 6.75 9.78953C6.75 9.78951 6.75 9.78948 6.75 9.78945C6.75 9.78943 6.75 9.7894 6.75 9.78937C6.75 9.78934 6.75 9.78932 6.75 9.78929C6.75 9.78926 6.75 9.78924 6.75 9.78921C6.75 9.78918 6.75 9.78915 6.75 9.78913C6.75 9.7891 6.75 9.78907 6.75 9.78904C6.75 9.78902 6.75 9.78899 6.75 9.78896C6.75 9.78893 6.75 9.7889 6.75 9.78888C6.75 9.78885 6.75 9.78882 6.75 9.78879C6.75 9.78876 6.75 9.78873 6.75 9.7887C6.75 9.78868 6.75 9.78865 6.75 9.78862C6.75 9.78859 6.75 9.78856 6.75 9.78853C6.75 9.7885 6.75 9.78847 6.75 9.78845C6.75 9.78842 6.75 9.78839 6.75 9.78836C6.75 9.78833 6.75 9.7883 6.75 9.78827C6.75 9.78824 6.75 9.78821 6.75 9.78818C6.75 9.78815 6.75 9.78812 6.75 9.78809C6.75 9.78806 6.75 9.78803 6.75 9.788C6.75 9.78797 6.75 9.78794 6.75 9.78791C6.75 9.78788 6.75 9.78785 6.75 9.78782C6.75 9.78779 6.75 9.78776 6.75 9.78773C6.75 9.78769 6.75 9.78766 6.75 9.78763C6.75 9.7876 6.75 9.78757 6.75 9.78754C6.75 9.78751 6.75 9.78748 6.75 9.78745C6.75 9.78741 6.75 9.78738 6.75 9.78735C6.75 9.78732 6.75 9.78729 6.75 9.78726C6.75 9.78722 6.75 9.78719 6.75 9.78716C6.75 9.78713 6.75 9.7871 6.75 9.78706C6.75 9.78703 6.75 9.787 6.75 9.78697C6.75 9.78693 6.75 9.7869 6.75 9.78687C6.75 9.78684 6.75 9.7868 6.75 9.78677C6.75 9.78674 6.75 9.7867 6.75 9.78667C6.75 9.78664 6.75 9.7866 6.75 9.78657C6.75 9.78654 6.75 9.7865 6.75 9.78647C6.75 9.78644 6.75 9.7864 6.75 9.78637C6.75 9.78634 6.75 9.7863 6.75 9.78627C6.75 9.78623 6.75 9.7862 6.75 9.78617C6.75 9.78613 6.75 9.7861 6.75 9.78606C6.75 9.78603 6.75 9.78599 6.75 9.78596C6.75 9.78592 6.75 9.78589 6.75 9.78585C6.75 9.78582 6.75 9.78578 6.75 9.78575C6.75 9.78571 6.75 9.78568 6.75 9.78564C6.75 9.78561 6.75 9.78557 6.75 9.78554C6.75 9.7855 6.75 9.78547 6.75 9.78543C6.75 9.7854 6.75 9.78536 6.75 9.78532C6.75 9.78529 6.75 9.78525 6.75 9.78521C6.75 9.78518 6.75 9.78514 6.75 9.78511C6.75 9.78507 6.75 9.78503 6.75 9.785C6.75 9.78496 6.75 9.78492 6.75 9.78489C6.75 9.78485 6.75 9.78481 6.75 9.78478C6.75 9.78474 6.75 9.7847 6.75 9.78466C6.75 9.78463 6.75 9.78459 6.75 9.78455C6.75 9.78451 6.75 9.78448 6.75 9.78444C6.75 9.7844 6.75 9.78436 6.75 9.78432C6.75 9.78429 6.75 9.78425 6.75 9.78421C6.75 9.78417 6.75 9.78413 6.75 9.78409C6.75 9.78406 6.75 9.78402 6.75 9.78398C6.75 9.78394 6.75 9.7839 6.75 9.78386C6.75 9.78382 6.75 9.78378 6.75 9.78374C6.75 9.78371 6.75 9.78367 6.75 9.78363C6.75 9.78359 6.75 9.78355 6.75 9.78351C6.75 9.78347 6.75 9.78343 6.75 9.78339C6.75 9.78335 6.75 9.78331 6.75 9.78327C6.75 9.78323 6.75 9.78319 6.75 9.78315C6.75 9.78311 6.75 9.78307 6.75 9.78303C6.75 9.78299 6.75 9.78295 6.75 9.7829C6.75 9.78286 6.75 9.78282 6.75 9.78278C6.75 9.78274 6.75 9.7827 6.75 9.78266C6.75 9.78262 6.75 9.78258 6.75 9.78253C6.75 9.78249 6.75 9.78245 6.75 9.78241C6.75 9.78237 6.75 9.78232 6.75 9.78228C6.75 9.78224 6.75 9.7822 6.75 9.78216C6.75 9.78211 6.75 9.78207 6.75 9.78203C6.75 9.78199 6.75 9.78194 6.75 9.7819C6.75 9.78186 6.75 9.78182 6.75 9.78177C6.75 9.78173 6.75 9.78169 6.75 9.78164C6.75 9.7816 6.75 9.78156 6.75 9.78151C6.75 9.78147 6.75 9.78143 6.75 9.78138C6.75 9.78134 6.75 9.78129 6.75 9.78125C6.75 9.78121 6.75 9.78116 6.75 9.78112C6.75 9.78107 6.75 9.78103 6.75 9.78098C6.75 9.78094 6.75 9.7809 6.75 9.78085C6.75 9.78081 6.75 9.78076 6.75 9.78072C6.75 9.78067 6.75 9.78063 6.75 9.78058C6.75 9.78054 6.75 9.78049 6.75 9.78044C6.75 9.7804 6.75 9.78035 6.75 9.78031C6.75 9.78026 6.75 9.78022 6.75 9.78017C6.75 9.78012 6.75 9.78008 6.75 9.78003C6.75 9.77999 6.75 9.77994 6.75 9.77989C6.75 9.77985 6.75 9.7798 6.75 9.77975C6.75 9.77971 6.75 9.77966 6.75 9.77961C6.75 9.77956 6.75 9.77952 6.75 9.77947C6.75 9.77942 6.75 9.77938 6.75 9.77933C6.75 9.77928 6.75 9.77923 6.75 9.77918C6.75 9.77914 6.75 9.77909 6.75 9.77904C6.75 9.77899 6.75 9.77894 6.75 9.7789C6.75 9.77885 6.75 9.7788 6.75 9.77875C6.75 9.7787 6.75 9.77865 6.75 9.7786C6.75 9.77856 6.75 9.77851 6.75 9.77846C6.75 9.77841 6.75 9.77836 6.75 9.77831C6.75 9.77826 6.75 9.77821 6.75 9.77816C6.75 9.77811 6.75 9.77806 6.75 9.77801C6.75 9.77796 6.75 9.77791 6.75 9.77786C6.75 9.77781 6.75 9.77776 6.75 9.77771C6.75 9.77766 6.75 9.77761 6.75 9.77756C6.75 9.77751 6.75 9.77746 6.75 9.77741C6.75 9.77736 6.75 9.7773 6.75 9.77725C6.75 9.7772 6.75 9.77715 6.75 9.7771C6.75 9.77705 6.75 9.777 6.75 9.77694C6.75 9.77689 6.75 9.77684 6.75 9.77679C6.75 9.77674 6.75 9.77668 6.75 9.77663C6.75 9.77658 6.75 9.77653 6.75 9.77648C6.75 9.77642 6.75 9.77637 6.75 9.77632C6.75 9.77626 6.75 9.77621 6.75 9.77616C6.75 9.7761 6.75 9.77605 6.75 9.776C6.75 9.77594 6.75 9.77589 6.75 9.77584C6.75 9.77578 6.75 9.77573 6.75 9.77568C6.75 9.77562 6.75 9.77557 6.75 9.77551C6.75 9.77546 6.75 9.77541 6.75 9.77535C6.75 9.7753 6.75 9.77524 6.75 9.77519C6.75 9.77513 6.75 9.77508 6.75 9.77502C6.75 9.77497 6.75 9.77491 6.75 9.77486C6.75 9.7748 6.75 9.77475 6.75 9.77469C6.75 9.77463 6.75 9.77458 6.75 9.77452C6.75 9.77447 6.75 9.77441 6.75 9.77436C6.75 9.7743 6.75 9.77424 6.75 9.77419C6.75 9.77413 6.75 9.77407 6.75 9.77402C6.75 9.77396 6.75 9.7739 6.75 9.77385C6.75 9.77379 6.75 9.77373 6.75 9.77367C6.75 9.77362 6.75 9.77356 6.75 9.7735C6.75 9.77344 6.75 9.77339 6.75 9.77333C6.75 9.77327 6.75 9.77321 6.75 9.77316C6.75 9.7731 6.75 9.77304 6.75 9.77298C6.75 9.77292 6.75 9.77286 6.75 9.7728C6.75 9.77275 6.75 9.77269 6.75 9.77263C6.75 9.77257 6.75 9.77251 6.75 9.77245C6.75 9.77239 6.75 9.77233 6.75 9.77227C6.75 9.77221 6.75 9.77215 6.75 9.77209C6.75 9.77203 6.75 9.77197 6.75 9.77191C6.75 9.77185 6.75 9.77179 6.75 9.77173C6.75 9.77167 6.75 9.77161 6.75 9.77155C6.75 9.77149 6.75 9.77143 6.75 9.77137C6.75 9.77131 6.75 9.77125 6.75 9.77118C6.75 9.77112 6.75 9.77106 6.75 9.771C6.75 9.77094 6.75 9.77088 6.75 9.77081C6.75 9.77075 6.75 9.77069 6.75 9.77063C6.75 9.77057 6.75 9.7705 6.75 9.77044C6.75 9.77038 6.75 9.77032 6.75 9.77025C6.75 9.77019 6.75 9.77013 6.75 9.77006C6.75 9.77 6.75 9.76994 6.75 9.76988C6.75 9.76981 6.75 9.76975 6.75 9.76968C6.75 9.76962 6.75 9.76956 6.75 9.76949C6.75 9.76943 6.75 9.76937 6.75 9.7693C6.75 9.76924 6.75 9.76917 6.75 9.76911C6.75 9.76904 6.75 9.76898 6.75 9.76891C6.75 9.76885 6.75 9.76878 6.75 9.76872C6.75 9.76865 6.75 9.76859 6.75 9.76852C6.75 9.76846 6.75 9.76839 6.75 9.76833C6.75 9.76826 6.75 9.76819 6.75 9.76813C6.75 9.76806 6.75 9.768 6.75 9.76793C6.75 9.76786 6.75 9.7678 6.75 9.76773C6.75 9.76766 6.75 9.7676 6.75 9.76753C6.75 9.76746 6.75 9.76739 6.75 9.76733C6.75 9.76726 6.75 9.76719 6.75 9.76712C6.75 9.76706 6.75 9.76699 6.75 9.76692C6.75 9.76685 6.75 9.76679 6.75 9.76672C6.75 9.76665 6.75 9.76658 6.75 9.76651C6.75 9.76644 6.75 9.76637 6.75 9.76631C6.75 9.76624 6.75 9.76617 6.75 9.7661C6.75 9.76603 6.75 9.76596 6.75 9.76589C6.75 9.76582 6.75 9.76575 6.75 9.76568C6.75 9.76561 6.75 9.76554 6.75 9.76547C6.75 9.7654 6.75 9.76533 6.75 9.76526C6.75 9.76519 6.75 9.76512 6.75 9.76505C6.75 9.76498 6.75 9.76491 6.75 9.76484C6.75 9.76477 6.75 9.7647 6.75 9.76462C6.75 9.76455 6.75 9.76448 6.75 9.76441C6.75 9.76434 6.75 9.76427 6.75 9.76419C6.75 9.76412 6.75 9.76405 6.75 9.76398C6.75 9.7639 6.75 9.76383 6.75 9.76376C6.75 9.76369 6.75 9.76361 6.75 9.76354C6.75 9.76347 6.75 9.7634 6.75 9.76332C6.75 9.76325 6.75 9.76318 6.75 9.7631C6.75 9.76303 6.75 9.76295 6.75 9.76288C6.75 9.76281 6.75 9.76273 6.75 9.76266C6.75 9.76258 6.75 9.76251 6.75 9.76244C6.75 9.76236 6.75 9.76229 6.75 9.76221C6.75 9.76214 6.75 9.76206 6.75 9.76199C6.75 9.76191 6.75 9.76184 6.75 9.76176C6.75 9.76168 6.75 9.76161 6.75 9.76153C6.75 9.76146 6.75 9.76138 6.75 9.76131C6.75 9.76123 6.75 9.76115 6.75 9.76108C6.75 9.761 6.75 9.76092 6.75 9.76085C6.75 9.76077 6.75 9.76069 6.75 9.76062C6.75 9.76054 6.75 9.76046 6.75 9.76038C6.75 9.76031 6.75 9.76023 6.75 9.76015C6.75 9.76007 6.75 9.75999 6.75 9.75992C6.75 9.75984 6.75 9.75976 6.75 9.75968C6.75 9.7596 6.75 9.75952 6.75 9.75945C6.75 9.75937 6.75 9.75929 6.75 9.75921C6.75 9.75913 6.75 9.75905 6.75 9.75897C6.75 9.75889 6.75 9.75881 6.75 9.75873C6.75 9.75865 6.75 9.75857 6.75 9.75849C6.75 9.75841 6.75 9.75833 6.75 9.75825C6.75 9.75817 6.75 9.75809 6.75 9.75801C6.75 9.75793 6.75 9.75785 6.75 9.75777C6.75 9.75769 6.75 9.7576 6.75 9.75752C6.75 9.75744 6.75 9.75736 6.75 9.75728C6.75 9.7572 6.75 9.75711 6.75 9.75703C6.75 9.75695 6.75 9.75687 6.75 9.75678C6.75 9.7567 6.75 9.75662 6.75 9.75654C6.75 9.75645 6.75 9.75637 6.75 9.75629C6.75 9.7562 6.75 9.75612 6.75 9.75604C6.75 9.75595 6.75 9.75587 6.75 9.75579C6.75 9.7557 6.75 9.75562 6.75 9.75553C6.75 9.75545 6.75 9.75537 6.75 9.75528C6.75 9.7552 6.75 9.75511 6.75 9.75503C6.75 9.75494 6.75 9.75486 6.75 9.75477C6.75 9.75469 6.75 9.7546 6.75 9.75452C6.75 9.75443 6.75 9.75434 6.75 9.75426C6.75 9.75417 6.75 9.75409 6.75 9.754C6.75 9.75391 6.75 9.75383 6.75 9.75374C6.75 9.75365 6.75 9.75357 6.75 9.75348C6.75 9.75339 6.75 9.75331 6.75 9.75322C6.75 9.75313 6.75 9.75304 6.75 9.75296C6.75 9.75287 6.75 9.75278 6.75 9.75269C6.75 9.75261 6.75 9.75252 6.75 9.75243C6.75 9.75234 6.75 9.75225 6.75 9.75216C6.75 9.75207 6.75 9.75199 6.75 9.7519C6.75 9.75181 6.75 9.75172 6.75 9.75163C6.75 9.75154 6.75 9.75145 6.75 9.75136C6.75 9.75127 6.75 9.75118 6.75 9.75109C6.75 9.751 6.75 9.75091 6.75 9.75082C6.75 9.75073 6.75 9.75064 6.75 9.75055C6.75 9.75046 6.75 9.75037 6.75 9.75027C6.75 9.75018 6.75 9.75009 6.75 9.75H5.75ZM5.75003 9.79099C5.70429 13.6789 4.65591 15.7731 3.74595 16.943L4.5353 17.557C5.59409 16.1957 6.70196 13.8836 6.74997 9.80276L5.75003 9.79099ZM11.5 23.5C10.0886 23.5 9 22.4114 9 21H8C8 22.9636 9.53636 24.5 11.5 24.5V23.5ZM8.5 21.5H14.4531V20.5H8.5V21.5ZM13.9531 21C13.9531 22.4165 12.8593 23.5 11.5 23.5V24.5C13.4219 24.5 14.9531 22.9585 14.9531 21H13.9531Z" fill="white"/>
</svg>
