<svg width="23" height="23" viewBox="0 0 23 23" fill="none" xmlns="http://www.w3.org/2000/svg">
<path d="M11.4935 0.718344C17.4349 0.718344 22.2687 5.55208 22.2687 11.4935C22.2687 17.4349 17.4349 22.2687 11.4935 22.2687C5.55208 22.2687 0.718344 17.4349 0.718344 11.4935C0.718344 5.55208 5.55208 0.718344 11.4935 0.718344ZM11.4935 0C5.1455 0 0 5.1455 0 11.4935C0 17.8408 5.1455 22.987 11.4935 22.987C17.8415 22.987 22.987 17.8408 22.987 11.4935C22.987 5.1455 17.8415 0 11.4935 0Z" fill="white"/>
<path d="M17.2454 8.95419C17.2454 12.3002 15.3849 14.8008 12.643 14.8008C11.7213 14.8008 10.8557 14.303 10.559 13.7369C10.559 13.7369 10.0634 15.7023 9.95922 16.0816C9.58999 17.422 8.50314 18.7632 8.41909 18.8731C8.36019 18.9492 8.23017 18.9255 8.21652 18.8242C8.19281 18.6533 7.91625 16.9623 8.24238 15.5823L9.33929 10.9339C9.33929 10.9339 9.06704 10.3894 9.06704 9.58417C9.06704 8.31989 9.79975 7.37599 10.712 7.37599C11.4879 7.37599 11.8621 7.95784 11.8621 8.65607C11.8621 9.43619 11.3657 10.6028 11.1093 11.6832C10.8952 12.5883 11.5633 13.3267 12.4555 13.3267C14.0717 13.3267 15.16 11.2507 15.16 8.79112C15.16 6.92199 13.9015 5.52194 11.6107 5.52194C9.02394 5.52194 7.41126 7.45141 7.41126 9.60716C7.41126 10.3506 7.63107 10.875 7.97444 11.2802C8.13176 11.467 8.15402 11.5417 8.09656 11.7557C8.05489 11.913 7.96223 12.2902 7.922 12.4403C7.86525 12.6565 7.68997 12.7334 7.4953 12.6537C6.30357 12.1673 5.74829 10.8614 5.74829 9.39453C5.74829 6.97156 7.79198 4.06586 11.8449 4.06586C15.1026 4.06801 17.2454 6.42418 17.2454 8.95419Z" fill="white"/>
</svg>
