<svg width="17" height="17" viewBox="0 0 17 17" fill="none" xmlns="http://www.w3.org/2000/svg">
<path d="M15.2903 7.30905C15.9624 7.30905 16.4665 7.81313 16.4665 8.48523C16.4665 8.82128 16.3405 9.11532 16.1304 9.32536C15.9204 9.53539 15.6264 9.66141 15.2903 9.66141L9.66146 9.66141L9.66146 15.2903C9.66146 15.6263 9.53544 15.9204 9.32541 16.1304C9.11538 16.3404 8.82133 16.4664 8.48528 16.4664C7.81318 16.4664 7.3091 15.9624 7.3091 15.2903L7.3091 9.66141L1.68025 9.66141C1.00815 9.66141 0.504076 9.15733 0.504076 8.48523C0.504076 7.81313 1.00815 7.30905 1.68025 7.30905L7.3091 7.30905L7.3091 1.6802C7.3091 1.0081 7.81318 0.504024 8.48528 0.504024C9.15738 0.504024 9.66146 1.0081 9.66146 1.6802L9.66146 7.30905L15.2903 7.30905Z" fill="#333333"/>
</svg>
