<svg width="36" height="36" viewBox="0 0 36 36" fill="none" xmlns="http://www.w3.org/2000/svg">
<path d="M18 9C16.22 9 14.4799 9.52784 12.9999 10.5168C11.5198 11.5057 10.3663 12.9113 9.68509 14.5558C9.0039 16.2004 8.82567 18.01 9.17294 19.7558C9.5202 21.5016 10.3774 23.1053 11.636 24.364C12.8947 25.6226 14.4984 26.4798 16.2442 26.8271C17.99 27.1743 19.7996 26.9961 21.4442 26.3149C23.0887 25.6337 24.4943 24.4802 25.4832 23.0001C26.4722 21.5201 27 19.78 27 18C27 15.6131 26.0518 13.3239 24.364 11.636C22.6761 9.94821 20.387 9 18 9ZM14.1429 24.6793C14.2384 23.7278 14.6839 22.8457 15.3931 22.2041C16.1022 21.5626 17.0244 21.2074 17.9807 21.2074C18.937 21.2074 19.8592 21.5626 20.5683 22.2041C21.2775 22.8457 21.7231 23.7278 21.8186 24.6793C20.6532 25.3574 19.329 25.7146 17.9807 25.7146C16.6324 25.7146 15.3082 25.3574 14.1429 24.6793ZM22.9757 23.8693C22.7017 22.7514 22.0606 21.7577 21.155 21.0473C20.2494 20.3369 19.1317 19.9507 17.9807 19.9507C16.8297 19.9507 15.712 20.3369 14.8064 21.0473C13.9008 21.7577 13.2597 22.7514 12.9857 23.8693C11.7824 22.8468 10.9218 21.4797 10.5201 19.9526C10.1185 18.4255 10.1952 16.8119 10.7398 15.3297C11.2845 13.8475 12.2708 12.5682 13.5657 11.6645C14.8606 10.7608 16.4017 10.2762 17.9807 10.2762C19.5598 10.2762 21.1008 10.7608 22.3957 11.6645C23.6906 12.5682 24.677 13.8475 25.2216 15.3297C25.7662 16.8119 25.8429 18.4255 25.4413 19.9526C25.0397 21.4797 24.1791 22.8468 22.9757 23.8693ZM18 12.8571C17.3643 12.8571 16.7428 13.0457 16.2142 13.3988C15.6857 13.752 15.2737 14.254 15.0304 14.8414C14.7871 15.4287 14.7235 16.075 14.8475 16.6985C14.9715 17.322 15.2776 17.8947 15.7272 18.3443C16.1767 18.7938 16.7494 19.0999 17.3729 19.224C17.9964 19.348 18.6427 19.2843 19.2301 19.041C19.8174 18.7978 20.3194 18.3858 20.6726 17.8572C21.0258 17.3286 21.2143 16.7072 21.2143 16.0714C21.2143 15.2189 20.8756 14.4014 20.2728 13.7986C19.67 13.1958 18.8525 12.8571 18 12.8571ZM18 18C17.6186 18 17.2457 17.8869 16.9285 17.675C16.6114 17.4631 16.3642 17.1619 16.2182 16.8095C16.0723 16.4571 16.0341 16.0693 16.1085 15.6952C16.1829 15.3211 16.3666 14.9774 16.6363 14.7077C16.906 14.438 17.2497 14.2543 17.6238 14.1799C17.9979 14.1055 18.3856 14.1437 18.738 14.2897C19.0904 14.4356 19.3916 14.6828 19.6036 15C19.8155 15.3171 19.9286 15.69 19.9286 16.0714C19.9286 16.5829 19.7254 17.0735 19.3637 17.4351C19.002 17.7968 18.5115 18 18 18Z" fill="#FF9A00"/>
<circle cx="18" cy="18" r="18" fill="#FF9A00" fill-opacity="0.15"/>
</svg>
