<svg width="12" height="12" viewBox="0 0 12 12" fill="none" xmlns="http://www.w3.org/2000/svg">
<path d="M5.25 0C2.355 0 0 2.355 0 5.25C0 8.145 2.355 10.5 5.25 10.5C6.5625 10.5 7.761 10.0118 8.682 9.21225L11.3573 11.8875C11.3918 11.9233 11.4332 11.9519 11.479 11.9715C11.5247 11.9912 11.5739 12.0015 11.6237 12.002C11.6735 12.0024 11.7229 11.9929 11.769 11.9741C11.8151 11.9552 11.8569 11.9274 11.8921 11.8921C11.9274 11.8569 11.9552 11.8151 11.9741 11.769C11.9929 11.7229 12.0024 11.6735 12.002 11.6237C12.0015 11.5739 11.9912 11.5247 11.9715 11.479C11.9519 11.4332 11.9233 11.3918 11.8875 11.3573L9.21225 8.682C10.0422 7.73122 10.4996 6.51203 10.5 5.25C10.5 2.355 8.145 0 5.25 0ZM5.25 0.75C7.74 0.75 9.75 2.76 9.75 5.25C9.75 7.74 7.74 9.75 5.25 9.75C2.76 9.75 0.75 7.74 0.75 5.25C0.75 2.76 2.76 0.75 5.25 0.75Z" fill="#757575"/>
</svg>
