<svg width="16" height="17" viewBox="0 0 16 17" fill="none" xmlns="http://www.w3.org/2000/svg">
<path d="M14.7678 0.502325C15.0937 0.505357 15.4053 0.63615 15.6357 0.866579C15.8662 1.09701 15.997 1.40866 16 1.73452L16 10.346C16 11.0179 15.4374 11.5782 14.7678 11.5782H12.9195C12.4638 11.5782 12.0639 11.3155 11.85 10.9388C11.4362 11.1946 11.0294 11.3434 10.7666 11.4945C10.1482 11.8525 9.83203 12.8569 9.68556 13.9054C9.61348 14.4285 9.57396 14.933 9.50886 15.3538C9.47631 15.5631 9.44609 15.7491 9.36007 15.9536C9.30515 16.1088 9.20485 16.2439 9.07217 16.3413C8.9395 16.4388 8.7806 16.494 8.6161 16.5C7.70241 16.5 6.95379 16.142 6.47719 15.5933C5.99826 15.0469 5.77506 14.3611 5.65417 13.6822C5.45888 12.5709 5.53327 11.6293 5.57047 10.9574L1.85062 10.9574C0.836966 10.9574 -5.01731e-07 10.1251 -5.01731e-07 9.11377C-5.01731e-07 8.75574 0.102295 8.48605 0.23249 8.06757C0.362685 7.64676 0.537052 7.13993 0.732344 6.59823C1.11828 5.51482 1.57861 4.28727 1.88085 3.38288C1.99454 2.99381 2.18418 2.63112 2.43883 2.31575C2.59449 2.13532 2.78669 1.99 3.00272 1.8894C3.21874 1.7888 3.45367 1.73522 3.69195 1.7322L11.0758 1.7322C11.2855 1.73412 11.4932 1.77268 11.6896 1.84612V1.72988C11.6896 1.0603 12.2476 0.499999 12.9195 0.499999L14.7678 0.502325ZM14.7678 1.73452H12.9195L12.9195 10.346H14.7678L14.7678 1.73452ZM11.0758 2.9644L3.69195 2.9644C3.52921 2.9644 3.47806 2.99695 3.37111 3.12249C3.22547 3.32054 3.11534 3.54238 3.04563 3.77812C2.73176 4.7197 2.27143 5.94493 1.89015 7.01439C1.6995 7.54911 1.52746 8.04432 1.40889 8.43258C1.288 8.81851 1.22987 9.16725 1.22987 9.1161C1.22827 9.19754 1.24321 9.27845 1.27378 9.35395C1.30435 9.42945 1.34992 9.49796 1.40773 9.55534C1.46555 9.61271 1.5344 9.65777 1.61012 9.68777C1.68585 9.71777 1.76688 9.73209 1.8483 9.72987L6.2075 9.72987C6.2888 9.72957 6.36935 9.74535 6.44452 9.77632C6.51969 9.80729 6.58799 9.85283 6.64548 9.91032C6.70296 9.96781 6.7485 10.0361 6.77947 10.1113C6.81044 10.1864 6.82623 10.267 6.82592 10.3483C6.82592 11.0737 6.66783 12.371 6.8608 13.473C6.95844 14.0217 7.13979 14.4843 7.4025 14.7842C7.6297 15.0398 7.94199 15.2042 8.28131 15.2469C8.34409 14.8958 8.38593 14.296 8.46498 13.7357C8.6254 12.5895 8.92764 11.1388 10.1529 10.4297C10.6109 10.167 11.0526 10.0112 11.3153 9.82985C11.5804 9.6485 11.6873 9.55086 11.6873 9.1161L11.6873 3.58282C11.6873 3.22944 11.4269 2.9644 11.0758 2.9644Z" fill="#757575"/>
</svg>
