<svg width="14" height="14" viewBox="0 0 14 14" fill="none" xmlns="http://www.w3.org/2000/svg">
<path d="M7.237 0.237C5.44391 0.238853 3.72479 0.951976 2.45688 2.21988C1.18898 3.48779 0.475852 5.20691 0.473999 7C0.473999 8.807 1.177 10.505 2.454 11.782C3.0806 12.4121 3.82599 12.9117 4.64701 13.2517C5.46803 13.5918 6.34835 13.7656 7.237 13.763C9.03009 13.7611 10.7492 13.048 12.0171 11.7801C13.285 10.5122 13.9981 8.79309 14 7C13.9981 5.20691 13.285 3.48779 12.0171 2.21988C10.7492 0.951976 9.03009 0.238853 7.237 0.237ZM3.149 11.738C3.61643 11.1299 4.21514 10.6352 4.90048 10.2908C5.58582 9.94635 6.34009 9.76116 7.107 9.749C7.131 9.75 7.154 9.756 7.178 9.756H7.201C7.223 9.756 7.243 9.75 7.265 9.749C8.04252 9.76223 8.80666 9.95353 9.4987 10.3082C10.1907 10.6629 10.7922 11.1715 11.257 11.795C10.1326 12.744 8.70837 13.2641 7.237 13.263C5.73476 13.2657 4.28245 12.7239 3.149 11.738ZM7.181 9.244C7.156 9.244 7.132 9.248 7.107 9.249C6.52331 9.22922 5.97035 8.98256 5.56568 8.56146C5.16101 8.14035 4.93654 7.57802 4.94 6.994C4.94104 6.69837 5.00044 6.40586 5.11478 6.13324C5.22913 5.86062 5.39616 5.61326 5.60632 5.40533C5.81647 5.19741 6.0656 5.03302 6.33943 4.92159C6.61325 4.81017 6.90638 4.75389 7.202 4.756C7.49763 4.75705 7.79014 4.81644 8.06276 4.93078C8.33538 5.04513 8.58274 5.21216 8.79067 5.42232C8.99859 5.63247 9.16298 5.8816 9.27441 6.15543C9.38583 6.42925 9.44211 6.72238 9.44 7.018C9.44 8.23 8.47 9.215 7.266 9.25C7.238 9.249 7.21 9.244 7.181 9.244ZM11.628 11.459C10.8548 10.4386 9.75488 9.71427 8.512 9.407C8.94449 9.17001 9.30527 8.82105 9.55651 8.39668C9.80776 7.97231 9.94021 7.48817 9.94 6.995C9.93882 6.63375 9.8664 6.27628 9.72688 5.94306C9.58737 5.60984 9.3835 5.3074 9.12694 5.05308C8.87039 4.79875 8.56619 4.59753 8.23176 4.46093C7.89733 4.32432 7.53924 4.25502 7.178 4.257C6.81675 4.25818 6.45928 4.3306 6.12606 4.47011C5.79284 4.60963 5.4904 4.8135 5.23608 5.07006C4.98175 5.32661 4.78053 5.63081 4.64393 5.96524C4.50732 6.29967 4.43802 6.65775 4.44 7.019C4.44184 7.50756 4.57475 7.98668 4.82487 8.40636C5.07499 8.82605 5.43316 9.17092 5.862 9.405C4.6401 9.70513 3.55482 10.4079 2.781 11.4C1.62036 10.231 0.97086 8.64931 0.974999 7.002C0.976852 5.34152 1.6373 3.74958 2.81144 2.57544C3.98557 1.4013 5.57752 0.740852 7.238 0.739C8.89848 0.740852 10.4904 1.4013 11.6646 2.57544C12.8387 3.74958 13.4991 5.34152 13.501 7.002C13.5006 7.83209 13.3347 8.65377 13.0131 9.41903C12.6915 10.1843 12.2207 10.8778 11.628 11.459Z" fill="#757575"/>
</svg>
