<svg width="29" height="24" viewBox="0 0 29 24" fill="none" xmlns="http://www.w3.org/2000/svg">
<path d="M25.375 3.5997H21.75L19.3333 0H9.66667L7.25 3.6H3.625C1.62219 3.6 0 5.2302 0 7.2186V20.4C0 22.389 1.62219 24 3.625 24H25.375C27.3778 24 29 22.4073 29 20.4186V7.2372C29 5.2482 27.3778 3.5997 25.375 3.5997ZM26.5833 20.4186C26.5833 21.0819 26.0526 21.6 25.375 21.6H3.625C2.9586 21.6 2.41667 21.0618 2.41667 20.4V7.2186C2.41667 6.5469 2.9586 6 3.625 6H8.54322L10.9599 2.4H18.0824L20.4565 6H25.375C26.0299 6 26.5833 6.5667 26.5833 7.2375V20.4186ZM14.5 7.2C11.1632 7.2 8.45833 9.8865 8.45833 13.2C8.45833 16.5135 11.1635 19.2 14.5 19.2C17.8368 19.2 20.5417 16.5138 20.5417 13.2C20.5417 9.8862 17.8368 7.2 14.5 7.2ZM14.5 16.8C12.5011 16.8 10.875 15.1851 10.875 13.2C10.875 11.2149 12.5008 9.6 14.5 9.6C16.4989 9.6 18.125 11.2149 18.125 13.2C18.125 15.1851 16.4986 16.8 14.5 16.8Z" fill="white"/>
</svg>
