<svg width="11" height="11" viewBox="0 0 11 11" fill="none" xmlns="http://www.w3.org/2000/svg">
<path d="M6.4625 5.5L10.7938 1.16875C11.0688 0.89375 11.0688 0.48125 10.7938 0.20625C10.5188 -0.06875 10.1062 -0.06875 9.83125 0.20625L5.5 4.5375L1.16875 0.20625C0.89375 -0.06875 0.48125 -0.06875 0.20625 0.20625C-0.0687499 0.48125 -0.0687499 0.89375 0.20625 1.16875L4.5375 5.5L0.20625 9.83125C0.0687501 9.96875 0 10.1062 0 10.3125C0 10.725 0.275 11 0.6875 11C0.89375 11 1.03125 10.9313 1.16875 10.7938L5.5 6.4625L9.83125 10.7938C9.96875 10.9313 10.1062 11 10.3125 11C10.5188 11 10.6563 10.9313 10.7938 10.7938C11.0688 10.5188 11.0688 10.1062 10.7938 9.83125L6.4625 5.5Z" fill="#F44336"/>
</svg>
