<svg width="20" height="18" viewBox="0 0 20 18" fill="none" xmlns="http://www.w3.org/2000/svg">
<path d="M5.25165 14.481L2.23261 17.019C2.12328 17.1109 1.98999 17.1696 1.8484 17.1884C1.70681 17.2071 1.56281 17.185 1.43334 17.1247C1.30387 17.0644 1.19431 16.9684 1.11755 16.848C1.04078 16.7275 1 16.5877 1 16.4449V1.55515C1 1.35623 1.07902 1.16547 1.21967 1.02482C1.36032 0.884163 1.55109 0.805145 1.75 0.805145H18.25C18.4489 0.805145 18.6397 0.884163 18.7803 1.02482C18.921 1.16547 19 1.35623 19 1.55515V13.5551C19 13.7541 18.921 13.9448 18.7803 14.0855C18.6397 14.2261 18.4489 14.3051 18.25 14.3051H5.73426C5.5577 14.3051 5.3868 14.3674 5.25165 14.481Z" stroke="#757575" stroke-width="1.5" stroke-linecap="round" stroke-linejoin="round"/>
<path d="M9.93747 7.55511C9.93747 7.5206 9.96545 7.49261 9.99997 7.49261C10.0345 7.49261 10.0625 7.5206 10.0625 7.55511C10.0625 7.58963 10.0345 7.61761 9.99997 7.61761C9.96545 7.61761 9.93747 7.58963 9.93747 7.55511Z" fill="#757575" stroke="#757575" stroke-width="2"/>
<path d="M14.4375 7.55511C14.4375 7.5206 14.4655 7.49261 14.5 7.49261C14.5345 7.49261 14.5625 7.5206 14.5625 7.55511C14.5625 7.58963 14.5345 7.61761 14.5 7.61761C14.4655 7.61761 14.4375 7.58963 14.4375 7.55511Z" fill="#757575" stroke="#757575" stroke-width="2"/>
<path d="M5.43747 7.55511C5.43747 7.5206 5.46545 7.49261 5.49997 7.49261C5.53449 7.49261 5.56247 7.5206 5.56247 7.55511C5.56247 7.58963 5.53449 7.61761 5.49997 7.61761C5.46545 7.61761 5.43747 7.58963 5.43747 7.55511Z" fill="#757575" stroke="#757575" stroke-width="2"/>
</svg>
