<svg width="23" height="34" viewBox="0 0 23 34" fill="none" xmlns="http://www.w3.org/2000/svg">
<path d="M17.023 0.346985C14.998 0.346985 12.991 0.754984 11.05 1.14998C9.121 1.54198 7.3 1.91298 5.476 1.91298C4.059 1.91298 2.799 1.68099 1.626 1.20399C1.51826 1.16291 1.40428 1.14059 1.289 1.13798C1.275 1.13698 1.264 1.12998 1.25 1.12998C1.238 1.12998 1.229 1.13598 1.217 1.13698C1.10158 1.13997 0.987548 1.16298 0.88 1.20498C0.861 1.21298 0.844 1.22398 0.825 1.23298C0.78 1.25298 0.734 1.27098 0.692 1.29998C0.65 1.32798 0.615 1.36498 0.578 1.39898C0.563 1.41298 0.546 1.42398 0.532 1.43898C0.455154 1.51968 0.392293 1.61262 0.346 1.71398C0.336 1.73598 0.329 1.75798 0.32 1.78098C0.279 1.89198 0.25 2.00798 0.25 2.12898V32.129C0.25 32.3942 0.355357 32.6486 0.542893 32.8361C0.73043 33.0236 0.984784 33.129 1.25 33.129C1.51522 33.129 1.76957 33.0236 1.95711 32.8361C2.14464 32.6486 2.25 32.3942 2.25 32.129V17.061C3.264 17.328 4.327 17.47 5.477 17.47C7.502 17.47 9.509 17.062 11.45 16.667C13.379 16.275 15.2 15.904 17.024 15.904C18.441 15.904 19.7 16.136 20.873 16.613C21.0249 16.6746 21.1896 16.6979 21.3526 16.6809C21.5157 16.6639 21.672 16.6072 21.808 16.5157C21.944 16.4241 22.0554 16.3006 22.1325 16.1559C22.2095 16.0113 22.2499 15.8499 22.25 15.686V2.12898C22.25 1.93019 22.1907 1.73593 22.0797 1.57099C21.9687 1.40605 21.8111 1.27793 21.627 1.20298C20.21 0.625985 18.704 0.346985 17.023 0.346985ZM20.25 14.302C19.1963 14.0309 18.112 13.8974 17.024 13.905C14.999 13.905 12.992 14.313 11.051 14.708C9.123 15.101 7.301 15.471 5.477 15.471C4.307 15.471 3.245 15.313 2.25 14.99V3.51499C3.262 3.78099 4.329 3.91198 5.477 3.91198C7.502 3.91198 9.509 3.50398 11.45 3.10898C13.379 2.71598 15.2 2.34598 17.024 2.34598C18.193 2.34598 19.256 2.50398 20.251 2.82698L20.25 14.302Z" fill="#686B6F"/>
</svg>
