<svg width="16" height="16" viewBox="0 0 16 16" fill="none" xmlns="http://www.w3.org/2000/svg">
<path d="M1.2322 15.9977C0.906339 15.9946 0.594682 15.8638 0.364254 15.6334C0.133826 15.403 0.00303146 15.0913 0 14.7655L0 6.15402C0 5.48213 0.562627 4.92182 1.2322 4.92182H3.0805C3.53618 4.92182 3.93606 5.18454 4.14996 5.56117C4.56379 5.30543 4.97065 5.15664 5.23336 5.00552C5.85179 4.64749 6.16797 3.64313 6.31444 2.59459C6.38651 2.07149 6.42604 1.56699 6.49114 1.14618C6.52368 0.936937 6.55391 0.750944 6.63993 0.546353C6.69485 0.391179 6.79515 0.256104 6.92783 0.158673C7.0605 0.0612419 7.2194 0.00595723 7.3839 0C8.29759 0 9.04621 0.358035 9.52281 0.906713C10.0017 1.45307 10.2249 2.13891 10.3458 2.81779C10.5411 3.92909 10.4667 4.87068 10.4295 5.54257H14.1494C15.163 5.54257 16 6.37489 16 7.38622C16 7.74426 15.8977 8.01395 15.7675 8.43243C15.6373 8.85324 15.4629 9.36007 15.2677 9.90177C14.8817 10.9852 14.4214 12.2127 14.1192 13.1171C14.0055 13.5062 13.8158 13.8689 13.5612 14.1842C13.4055 14.3647 13.2133 14.51 12.9973 14.6106C12.7813 14.7112 12.5463 14.7648 12.308 14.7678H4.92415C4.71448 14.7659 4.50677 14.7273 4.31037 14.6539V14.7701C4.31037 15.4397 3.7524 16 3.0805 16L1.2322 15.9977Z" fill="#FF9A00"/>
</svg>
