<svg width="15" height="20" viewBox="0 0 15 20" fill="none" xmlns="http://www.w3.org/2000/svg">
<path d="M7.37272 18.2044L7.5 18.4085L7.62728 18.2044C8.59735 16.6489 9.40326 15.3763 10.072 14.3203C11.1354 12.6411 11.852 11.5094 12.3304 10.6592C12.7213 9.96447 12.9591 9.44778 13.0979 8.96595C13.2374 8.48195 13.275 8.04053 13.275 7.5C13.275 4.31056 10.6894 1.725 7.5 1.725C4.31056 1.725 1.725 4.31056 1.725 7.5C1.725 8.04362 1.76617 8.49171 1.90999 8.98286C2.05315 9.47174 2.29595 9.99623 2.69026 10.6958C3.17047 11.5478 3.88393 12.6739 4.93287 14.3293C5.60117 15.3841 6.40564 16.6537 7.37272 18.2044ZM0.15 7.5C0.15 3.44271 3.43849 0.15 7.5 0.15C11.5573 0.15 14.85 3.43849 14.85 7.5C14.85 8.18519 14.7924 8.74577 14.6317 9.32535C14.4706 9.90616 14.2042 10.5126 13.7794 11.2874C13.2338 12.2825 12.4351 13.5417 11.2782 15.3657C10.6266 16.393 9.86132 17.5994 8.96366 19.0388C8.2894 20.1198 6.7113 20.121 6.0363 19.0388C5.13878 17.5997 4.37361 16.3934 3.72203 15.3661C2.56578 13.5433 1.76723 12.2844 1.22159 11.2892C0.796602 10.5141 0.529917 9.90732 0.368654 9.32614C0.207737 8.74621 0.15 8.1853 0.15 7.5ZM4.525 7.5C4.525 5.85695 5.85694 4.525 7.5 4.525C9.14306 4.525 10.475 5.85695 10.475 7.5C10.475 9.14306 9.14306 10.475 7.5 10.475C5.85694 10.475 4.525 9.14306 4.525 7.5Z" fill="#757575" stroke="white" stroke-width="0.3"/>
</svg>
