<svg width="10" height="15" viewBox="0 0 10 15" fill="none" xmlns="http://www.w3.org/2000/svg">
<path d="M4.98943 14.007C4.95463 14.0067 4.92048 13.9976 4.89015 13.9806C4.85983 13.9635 4.83432 13.939 4.81601 13.9095L0.805689 7.20573C0.527939 6.52174 0.422175 5.78006 0.497663 5.04569C0.573151 4.31132 0.827588 3.60667 1.23868 2.99348C1.64977 2.38029 2.20497 1.87728 2.85563 1.52851C3.5063 1.17975 4.23256 0.99588 4.9708 0.993015C5.70903 0.99015 6.4367 1.16838 7.09005 1.51208C7.7434 1.85578 8.30249 2.35447 8.71833 2.96445C9.13416 3.57443 9.39406 4.27709 9.47525 5.01085C9.55644 5.74461 9.45643 6.48708 9.184 7.17322L5.16284 13.9149C5.14389 13.9435 5.11811 13.9669 5.08782 13.983C5.05754 13.999 5.02372 14.0073 4.98943 14.007ZM4.98943 1.40161C4.32088 1.40548 3.66338 1.57246 3.07401 1.88806C2.48464 2.20366 1.9812 2.65834 1.6074 3.21263C1.2336 3.76693 1.00073 4.40408 0.92902 5.06877C0.857307 5.73347 0.948912 6.40563 1.19588 7.02689L4.98943 13.4109L8.8209 6.99438C9.06364 6.37185 9.15064 5.69945 9.07435 5.03564C8.99806 4.37182 8.76078 3.7367 8.38314 3.18546C8.00551 2.63423 7.49894 2.18358 6.90749 1.8727C6.31604 1.56181 5.6576 1.4001 4.98943 1.40161Z" fill="black"/>
<path d="M4.98942 7.50383C4.58962 7.50383 4.1988 7.38528 3.86638 7.16316C3.53396 6.94105 3.27487 6.62534 3.12188 6.25598C2.96888 5.88661 2.92885 5.48017 3.00685 5.08806C3.08484 4.69594 3.27737 4.33576 3.56007 4.05306C3.84277 3.77036 4.20295 3.57784 4.59506 3.49984C4.98718 3.42184 5.39362 3.46187 5.76299 3.61487C6.13235 3.76787 6.44805 4.02696 6.67017 4.35938C6.89228 4.6918 7.01084 5.08262 7.01084 5.48242C7.00941 6.01809 6.79598 6.53141 6.4172 6.91019C6.03842 7.28897 5.5251 7.5024 4.98942 7.50383ZM4.98942 3.86745C4.66787 3.86745 4.35354 3.9628 4.08617 4.14145C3.81881 4.32009 3.61043 4.57401 3.48738 4.87109C3.36432 5.16816 3.33213 5.49506 3.39486 5.81043C3.45759 6.12581 3.61243 6.4155 3.83981 6.64287C4.06718 6.87024 4.35687 7.02509 4.67224 7.08782C4.98762 7.15055 5.31451 7.11835 5.61159 6.9953C5.90867 6.87225 6.16258 6.66386 6.34123 6.3965C6.51988 6.12914 6.61523 5.81481 6.61523 5.49325C6.61594 5.2793 6.57441 5.0673 6.49303 4.86942C6.41164 4.67154 6.292 4.49168 6.14096 4.34013C5.98992 4.18859 5.81045 4.06835 5.61284 3.9863C5.41524 3.90426 5.20338 3.86203 4.98942 3.86203V3.86745Z" fill="black"/>
</svg>
