<svg width="16" height="16" viewBox="0 0 16 16" fill="none" xmlns="http://www.w3.org/2000/svg">
<path d="M8 0C6.41775 0 4.87103 0.469192 3.55544 1.34824C2.23985 2.22729 1.21447 3.47672 0.608967 4.93853C0.00346627 6.40034 -0.15496 8.00887 0.153721 9.56072C0.462403 11.1126 1.22433 12.538 2.34315 13.6569C3.46197 14.7757 4.88743 15.5376 6.43928 15.8463C7.99113 16.155 9.59966 15.9965 11.0615 15.391C12.5233 14.7855 13.7727 13.7602 14.6518 12.4446C15.5308 11.129 16 9.58225 16 8C16 5.87827 15.1571 3.84344 13.6569 2.34315C12.1566 0.842854 10.1217 0 8 0ZM4.57143 13.9371C4.65633 13.0914 5.05238 12.3073 5.68274 11.737C6.31311 11.1668 7.13283 10.851 7.98286 10.851C8.83289 10.851 9.65261 11.1668 10.283 11.737C10.9133 12.3073 11.3094 13.0914 11.3943 13.9371C10.3584 14.5399 9.18134 14.8575 7.98286 14.8575C6.78438 14.8575 5.6073 14.5399 4.57143 13.9371ZM12.4229 13.2171C12.1793 12.2234 11.6094 11.3402 10.8045 10.7087C9.9995 10.0772 9.00597 9.734 7.98286 9.734C6.95975 9.734 5.96622 10.0772 5.16125 10.7087C4.35629 11.3402 3.78642 12.2234 3.54286 13.2171C2.47322 12.3083 1.70824 11.0931 1.35123 9.73565C0.994224 8.3782 1.06239 6.94389 1.54652 5.62641C2.03065 4.30893 2.90742 3.17176 4.05843 2.36845C5.20944 1.56515 6.57925 1.13441 7.98286 1.13441C9.38647 1.13441 10.7563 1.56515 11.9073 2.36845C13.0583 3.17176 13.9351 4.30893 14.4192 5.62641C14.9033 6.94389 14.9715 8.3782 14.6145 9.73565C14.2575 11.0931 13.4925 12.3083 12.4229 13.2171ZM8 3.42857C7.43491 3.42857 6.88251 3.59614 6.41266 3.91009C5.9428 4.22403 5.5766 4.67026 5.36035 5.19233C5.1441 5.71441 5.08752 6.28888 5.19776 6.84311C5.308 7.39735 5.58012 7.90644 5.9797 8.30602C6.37928 8.7056 6.88837 8.97771 7.4426 9.08796C7.99683 9.1982 8.57131 9.14162 9.09338 8.92537C9.61546 8.70912 10.0617 8.34291 10.3756 7.87306C10.6896 7.4032 10.8571 6.8508 10.8571 6.28571C10.8571 5.52795 10.5561 4.80123 10.0203 4.26541C9.48449 3.72959 8.75776 3.42857 8 3.42857ZM8 8C7.66095 8 7.32951 7.89946 7.0476 7.71109C6.76568 7.52272 6.54596 7.25499 6.41621 6.94174C6.28646 6.6285 6.25251 6.28381 6.31866 5.95127C6.3848 5.61873 6.54807 5.31328 6.78782 5.07353C7.02757 4.83378 7.33302 4.67051 7.66556 4.60437C7.9981 4.53822 8.34279 4.57217 8.65603 4.70192C8.96928 4.83167 9.23701 5.05139 9.42538 5.33331C9.61375 5.61522 9.71429 5.94666 9.71429 6.28571C9.71429 6.74037 9.53368 7.17641 9.21218 7.4979C8.89069 7.81939 8.45466 8 8 8Z" fill="#757575"/>
</svg>
