<svg width="146" height="146" viewBox="0 0 146 146" fill="none" xmlns="http://www.w3.org/2000/svg">
<circle cx="73" cy="73" r="73" fill="#EDEDED"/>
<path d="M73.5 35C66.0832 35 58.833 37.1993 52.6661 41.3199C46.4993 45.4404 41.6928 51.2971 38.8545 58.1494C36.0162 65.0016 35.2736 72.5416 36.7206 79.8159C38.1675 87.0902 41.739 93.772 46.9835 99.0165C52.228 104.261 58.9098 107.832 66.1841 109.279C73.4584 110.726 80.9984 109.984 87.8506 107.145C94.7029 104.307 100.56 99.5007 104.68 93.3339C108.801 87.167 111 79.9168 111 72.5C111 62.5544 107.049 53.0161 100.017 45.9835C92.9839 38.9509 83.4456 35 73.5 35ZM57.4286 100.33C57.8265 96.3658 59.683 92.6903 62.6379 90.0173C65.5927 87.3442 69.4351 85.8641 73.4197 85.8641C77.4042 85.8641 81.2466 87.3442 84.2014 90.0173C87.1563 92.6903 89.0128 96.3658 89.4107 100.33C84.5551 103.156 79.0375 104.644 73.4197 104.644C67.8018 104.644 62.2842 103.156 57.4286 100.33ZM94.2321 96.9553C93.0904 92.2974 90.4192 88.1571 86.6459 85.197C82.8727 82.2369 78.2155 80.6281 73.4197 80.6281C68.6238 80.6281 63.9666 82.2369 60.1934 85.197C56.4201 88.1571 53.7489 92.2974 52.6072 96.9553C47.5932 92.6952 44.0074 86.9989 42.3339 80.6359C40.6604 74.2728 40.9799 67.5495 43.2493 61.3738C45.5187 55.1981 49.6285 49.8676 55.0239 46.1021C60.4193 42.3366 66.8402 40.3175 73.4197 40.3175C79.9991 40.3175 86.42 42.3366 91.8154 46.1021C97.2108 49.8676 101.321 55.1981 103.59 61.3738C105.859 67.5495 106.179 74.2728 104.505 80.6359C102.832 86.9989 99.2461 92.6952 94.2321 96.9553ZM73.5 51.0714C70.8512 51.0714 68.2618 51.8569 66.0593 53.3285C63.8569 54.8002 62.1403 56.8918 61.1266 59.3391C60.113 61.7863 59.8477 64.4791 60.3645 67.0771C60.8813 69.6751 62.1568 72.0614 64.0298 73.9345C65.9029 75.8075 68.2892 77.083 70.8872 77.5998C73.4852 78.1166 76.178 77.8513 78.6252 76.8377C81.0725 75.824 83.1641 74.1074 84.6358 71.905C86.1074 69.7025 86.8929 67.1131 86.8929 64.4643C86.8929 60.9123 85.4818 57.5058 82.9702 54.9941C80.4585 52.4825 77.052 51.0714 73.5 51.0714ZM73.5 72.5C71.9107 72.5 70.3571 72.0287 69.0356 71.1457C67.7141 70.2628 66.6842 69.0078 66.076 67.5394C65.4678 66.0711 65.3086 64.4554 65.6187 62.8966C65.9288 61.3378 66.6941 59.906 67.8179 58.7822C68.9417 57.6584 70.3735 56.893 71.9323 56.583C73.4911 56.2729 75.1068 56.432 76.5751 57.0402C78.0435 57.6485 79.2985 58.6784 80.1815 59.9999C81.0644 61.3213 81.5357 62.875 81.5357 64.4643C81.5357 66.5955 80.6891 68.6394 79.1821 70.1464C77.6751 71.6534 75.6312 72.5 73.5 72.5Z" fill="#757575"/>
</svg>
