<svg width="20" height="18" viewBox="0 0 20 18" fill="none" xmlns="http://www.w3.org/2000/svg">
<path d="M0.729148 17.5C0.652399 17.5004 0.576113 17.488 0.503382 17.4632C0.351284 17.4132 0.219667 17.314 0.128847 17.1809C0.0380276 17.0478 -0.00694503 16.8882 0.000870727 16.7266C0.000870727 16.6161 0.750997 5.92158 11.3547 5.08192V1.23719C11.3546 1.09075 11.3976 0.947604 11.4783 0.826025C11.559 0.704445 11.6737 0.609953 11.8078 0.554616C11.9418 0.49928 12.0892 0.485611 12.2309 0.515355C12.3727 0.5451 12.5025 0.616908 12.6037 0.721607L19.7918 8.14593C19.9253 8.28361 20 8.46872 20 8.66151C20 8.8543 19.9253 9.03941 19.7918 9.17709L12.6037 16.6014C12.5025 16.7061 12.3727 16.7779 12.2309 16.8077C12.0892 16.8374 11.9418 16.8237 11.8078 16.7684C11.6737 16.7131 11.559 16.6186 11.4783 16.497C11.3976 16.3754 11.3546 16.2323 11.3547 16.0858V12.3147C4.27586 12.5873 1.37367 17.1023 1.34454 17.1575C1.27884 17.2624 1.18797 17.3489 1.08037 17.4087C0.972778 17.4686 0.851958 17.5 0.729148 17.5ZM12.8113 3.04171V5.77059C12.8114 5.96155 12.7382 6.14508 12.6071 6.2825C12.4759 6.41991 12.2972 6.50045 12.1085 6.50713C5.24811 6.76124 2.79382 11.383 1.9126 14.355C3.73329 12.764 6.97777 10.8196 12.0393 10.8196H12.0721C12.2652 10.8196 12.4505 10.8972 12.587 11.0353C12.7236 11.1734 12.8004 11.3608 12.8004 11.5561V14.285L18.2624 8.66519L12.8113 3.04171Z" fill="#757575"/>
</svg>
