<svg width="16" height="11" viewBox="0 0 16 11" fill="none" xmlns="http://www.w3.org/2000/svg">
<path d="M5.23166 11C5.07114 11.0009 4.9166 10.9396 4.80103 10.8289L0.187134 6.38107C0.128968 6.32491 0.0825085 6.25791 0.0504105 6.18392C0.0183124 6.10992 0.00120378 6.03037 6.12691e-05 5.94981C-0.00108124 5.86925 0.0137649 5.78925 0.0437519 5.71439C0.0737388 5.63953 0.11828 5.57126 0.174831 5.51349C0.231382 5.45573 0.298836 5.40959 0.373342 5.37771C0.447848 5.34583 0.527947 5.32884 0.609065 5.3277C0.690183 5.32657 0.770731 5.34131 0.846112 5.37109C0.921492 5.40088 0.990228 5.44511 1.04839 5.50127L5.23166 9.53367L14.9516 0.173631C15.0691 0.0602043 15.2271 -0.00223065 15.3909 6.09245e-05C15.5548 0.0023525 15.711 0.0691832 15.8252 0.185851C15.9394 0.302519 16.0022 0.459467 15.9999 0.622169C15.9976 0.784871 15.9303 0.939999 15.8129 1.05343L5.66229 10.8289C5.54672 10.9396 5.39218 11.0009 5.23166 11Z" fill="#4CAF50"/>
</svg>
