<svg width="16" height="16" viewBox="0 0 16 16" fill="none" xmlns="http://www.w3.org/2000/svg">
<path d="M14.7678 0.00232697C15.0937 0.00535843 15.4053 0.136152 15.6357 0.36658C15.8662 0.597008 15.997 0.908666 16 1.23453V9.84598C16 10.5179 15.4374 11.0782 14.7678 11.0782H12.9195C12.4638 11.0782 12.0639 10.8155 11.85 10.4388C11.4362 10.6946 11.0294 10.8434 10.7666 10.9945C10.1482 11.3525 9.83203 12.3569 9.68556 13.4054C9.61349 13.9285 9.57396 14.433 9.50886 14.8538C9.47632 15.0631 9.44609 15.2491 9.36007 15.4536C9.30515 15.6088 9.20485 15.7439 9.07217 15.8413C8.9395 15.9388 8.7806 15.994 8.6161 16C7.70241 16 6.95379 15.642 6.47719 15.0933C5.99826 14.5469 5.77507 13.8611 5.65417 13.1822C5.45888 12.0709 5.53328 11.1293 5.57047 10.4574H1.85063C0.836967 10.4574 1.90735e-06 9.62511 1.90735e-06 8.61378C1.90735e-06 8.25574 0.102297 7.98605 0.232491 7.56757C0.362686 7.14676 0.537053 6.63993 0.732345 6.09823C1.11828 5.01482 1.57861 3.78727 1.88085 2.88288C1.99454 2.49381 2.18419 2.13112 2.43883 1.81575C2.59449 1.63532 2.7867 1.49 3.00272 1.3894C3.21875 1.2888 3.45367 1.23522 3.69195 1.2322H11.0759C11.2855 1.23413 11.4932 1.27268 11.6896 1.34612V1.22988C11.6896 0.560305 12.2476 1.90735e-06 12.9195 1.90735e-06L14.7678 0.00232697Z" fill="#FF9A00"/>
</svg>
