<svg width="22" height="14" viewBox="0 0 22 14" fill="none" xmlns="http://www.w3.org/2000/svg">
<path d="M11 13.8743C9.59765 13.8743 8.14946 13.526 6.69212 12.8431C5.55098 12.3069 4.40069 11.5645 3.27331 10.6342C1.37142 9.06227 0.198209 7.5041 0.147797 7.43994C-0.0492657 7.17872 -0.0492657 6.82126 0.147797 6.56003C0.198209 6.49587 1.37142 4.9377 3.27331 3.36578C4.40069 2.43546 5.55098 1.69304 6.69212 1.15684C8.14946 0.473999 9.59765 0.125702 11 0.125702C12.4024 0.125702 13.8505 0.473999 15.3079 1.15684C16.449 1.69304 17.5993 2.43546 18.7267 3.36578C20.6286 4.9377 21.8064 6.49587 21.8522 6.56003C22.0493 6.82126 22.0493 7.17872 21.8522 7.43994C21.8018 7.5041 20.6286 9.06227 18.7267 10.6342C17.5993 11.5645 16.449 12.3069 15.3079 12.8431C13.8505 13.526 12.4024 13.8743 11 13.8743ZM1.67847 6.99999C2.82877 8.3611 6.62796 12.4078 11 12.4078C15.3812 12.4078 19.1712 8.3611 20.3215 6.99999C19.1712 5.63888 15.372 1.59222 11 1.59222C6.61879 1.59222 2.82877 5.63888 1.67847 6.99999Z" fill="#686B6F"/>
<path d="M10.9998 10.2996C9.18043 10.2996 7.70017 8.81931 7.70017 6.99991C7.70017 5.18052 9.18043 3.70026 10.9998 3.70026C12.8192 3.70026 14.2995 5.18052 14.2995 6.99991C14.2995 8.81931 12.8192 10.2996 10.9998 10.2996ZM10.9998 5.16677C9.98702 5.16677 9.16668 5.9871 9.16668 6.99991C9.16668 8.01272 9.98702 8.83306 10.9998 8.83306C12.0126 8.83306 12.833 8.01272 12.833 6.99991C12.833 5.9871 12.0126 5.16677 10.9998 5.16677Z" fill="#686B6F"/>
</svg>
